<svg width="134" height="32" viewBox="0 0 134 32" fill="none" xmlns="http://www.w3.org/2000/svg">
<path fill-rule="evenodd" clip-rule="evenodd" d="M16.96 32C25.7966 32 32.96 24.8366 32.96 16C32.96 7.16347 25.7966 1.52588e-05 16.96 1.52588e-05C8.1234 1.52588e-05 0.959961 7.16347 0.959961 16C0.959961 24.8366 8.1234 32 16.96 32ZM21.9514 7.45349C22.1944 6.59046 21.3569 6.08012 20.592 6.62506L9.91446 14.2317C9.08494 14.8226 9.21542 16 10.1105 16H12.9221V15.9782H18.402L13.9369 17.5537L11.9685 24.5466C11.7256 25.4096 12.563 25.9199 13.328 25.375L24.0055 17.7684C24.835 17.1774 24.7045 16 23.8095 16H19.5457L21.9514 7.45349Z" fill="#94A3B8"/>
<path d="M54.8232 21.2578V24H42.7295V21.2578H54.8232ZM54.6475 8.89453L44.2881 24H41.8154V21.9844L52.2568 6.9375H54.6475V8.89453ZM53.4404 6.9375V9.69141H41.8271V6.9375H53.4404ZM56.0537 17.7891V17.543C56.0537 16.6133 56.1865 15.7578 56.4521 14.9766C56.7178 14.1875 57.1045 13.5039 57.6123 12.9258C58.1201 12.3477 58.7451 11.8984 59.4873 11.5781C60.2295 11.25 61.0811 11.0859 62.042 11.0859C63.0029 11.0859 63.8584 11.25 64.6084 11.5781C65.3584 11.8984 65.9873 12.3477 66.4951 12.9258C67.0107 13.5039 67.4014 14.1875 67.667 14.9766C67.9326 15.7578 68.0654 16.6133 68.0654 17.543V17.7891C68.0654 18.7109 67.9326 19.5664 67.667 20.3555C67.4014 21.1367 67.0107 21.8203 66.4951 22.4062C65.9873 22.9844 65.3623 23.4336 64.6201 23.7539C63.8779 24.0742 63.0264 24.2344 62.0654 24.2344C61.1045 24.2344 60.249 24.0742 59.499 23.7539C58.7568 23.4336 58.1279 22.9844 57.6123 22.4062C57.1045 21.8203 56.7178 21.1367 56.4521 20.3555C56.1865 19.5664 56.0537 18.7109 56.0537 17.7891ZM59.4287 17.543V17.7891C59.4287 18.3203 59.4756 18.8164 59.5693 19.2773C59.6631 19.7383 59.8115 20.1445 60.0146 20.4961C60.2256 20.8398 60.499 21.1094 60.835 21.3047C61.1709 21.5 61.5811 21.5977 62.0654 21.5977C62.5342 21.5977 62.9365 21.5 63.2725 21.3047C63.6084 21.1094 63.8779 20.8398 64.0811 20.4961C64.2842 20.1445 64.4326 19.7383 64.5264 19.2773C64.6279 18.8164 64.6787 18.3203 64.6787 17.7891V17.543C64.6787 17.0273 64.6279 16.543 64.5264 16.0898C64.4326 15.6289 64.2803 15.2227 64.0693 14.8711C63.8662 14.5117 63.5967 14.2305 63.2607 14.0273C62.9248 13.8242 62.5186 13.7227 62.042 13.7227C61.5654 13.7227 61.1592 13.8242 60.8232 14.0273C60.4951 14.2305 60.2256 14.5117 60.0146 14.8711C59.8115 15.2227 59.6631 15.6289 59.5693 16.0898C59.4756 16.543 59.4287 17.0273 59.4287 17.543ZM69.6006 17.7891V17.543C69.6006 16.6133 69.7334 15.7578 69.999 14.9766C70.2646 14.1875 70.6514 13.5039 71.1592 12.9258C71.667 12.3477 72.292 11.8984 73.0342 11.5781C73.7764 11.25 74.6279 11.0859 75.5889 11.0859C76.5498 11.0859 77.4053 11.25 78.1553 11.5781C78.9053 11.8984 79.5342 12.3477 80.042 12.9258C80.5576 13.5039 80.9482 14.1875 81.2139 14.9766C81.4795 15.7578 81.6123 16.6133 81.6123 17.543V17.7891C81.6123 18.7109 81.4795 19.5664 81.2139 20.3555C80.9482 21.1367 80.5576 21.8203 80.042 22.4062C79.5342 22.9844 78.9092 23.4336 78.167 23.7539C77.4248 24.0742 76.5732 24.2344 75.6123 24.2344C74.6514 24.2344 73.7959 24.0742 73.0459 23.7539C72.3037 23.4336 71.6748 22.9844 71.1592 22.4062C70.6514 21.8203 70.2646 21.1367 69.999 20.3555C69.7334 19.5664 69.6006 18.7109 69.6006 17.7891ZM72.9756 17.543V17.7891C72.9756 18.3203 73.0225 18.8164 73.1162 19.2773C73.21 19.7383 73.3584 20.1445 73.5615 20.4961C73.7725 20.8398 74.0459 21.1094 74.3818 21.3047C74.7178 21.5 75.1279 21.5977 75.6123 21.5977C76.0811 21.5977 76.4834 21.5 76.8193 21.3047C77.1553 21.1094 77.4248 20.8398 77.6279 20.4961C77.8311 20.1445 77.9795 19.7383 78.0732 19.2773C78.1748 18.8164 78.2256 18.3203 78.2256 17.7891V17.543C78.2256 17.0273 78.1748 16.543 78.0732 16.0898C77.9795 15.6289 77.8271 15.2227 77.6162 14.8711C77.4131 14.5117 77.1436 14.2305 76.8076 14.0273C76.4717 13.8242 76.0654 13.7227 75.5889 13.7227C75.1123 13.7227 74.7061 13.8242 74.3701 14.0273C74.042 14.2305 73.7725 14.5117 73.5615 14.8711C73.3584 15.2227 73.21 15.6289 73.1162 16.0898C73.0225 16.543 72.9756 17.0273 72.9756 17.543ZM87.0615 13.9453V24H83.6748V11.3203H86.8506L87.0615 13.9453ZM86.5928 17.2148H85.6553C85.6553 16.332 85.7607 15.5195 85.9717 14.7773C86.1904 14.0273 86.5068 13.3789 86.9209 12.832C87.3428 12.2773 87.8623 11.8477 88.4795 11.543C89.0967 11.2383 89.8115 11.0859 90.624 11.0859C91.1865 11.0859 91.7021 11.1719 92.1709 11.3438C92.6396 11.5078 93.042 11.7695 93.3779 12.1289C93.7217 12.4805 93.9873 12.9414 94.1748 13.5117C94.3623 14.0742 94.4561 14.75 94.4561 15.5391V24H91.0811V15.9141C91.0811 15.3359 91.0029 14.8906 90.8467 14.5781C90.6904 14.2656 90.4678 14.0469 90.1787 13.9219C89.8975 13.7969 89.5576 13.7344 89.1592 13.7344C88.7217 13.7344 88.3389 13.8242 88.0107 14.0039C87.6904 14.1836 87.4248 14.4336 87.2139 14.7539C87.0029 15.0664 86.8467 15.4336 86.7451 15.8555C86.6436 16.2773 86.5928 16.7305 86.5928 17.2148ZM94.1396 16.8281L92.9326 16.9805C92.9326 16.1523 93.0342 15.3828 93.2373 14.6719C93.4482 13.9609 93.7568 13.3359 94.1631 12.7969C94.5771 12.2578 95.0889 11.8398 95.6982 11.543C96.3076 11.2383 97.0107 11.0859 97.8076 11.0859C98.417 11.0859 98.9717 11.1758 99.4717 11.3555C99.9717 11.5273 100.397 11.8047 100.749 12.1875C101.108 12.5625 101.382 13.0547 101.569 13.6641C101.765 14.2734 101.862 15.0195 101.862 15.9023V24H98.4756V15.9023C98.4756 15.3164 98.3975 14.8711 98.2412 14.5664C98.0928 14.2539 97.874 14.0391 97.585 13.9219C97.3037 13.7969 96.9678 13.7344 96.5771 13.7344C96.1709 13.7344 95.8154 13.8164 95.5107 13.9805C95.2061 14.1367 94.9521 14.3555 94.749 14.6367C94.5459 14.918 94.3936 15.2461 94.292 15.6211C94.1904 15.9883 94.1396 16.3906 94.1396 16.8281ZM110.312 24.2344C109.327 24.2344 108.444 24.0781 107.663 23.7656C106.882 23.4453 106.218 23.0039 105.671 22.4414C105.132 21.8789 104.718 21.2266 104.429 20.4844C104.14 19.7344 103.995 18.9375 103.995 18.0938V17.625C103.995 16.6641 104.132 15.7852 104.405 14.9883C104.679 14.1914 105.069 13.5 105.577 12.9141C106.093 12.3281 106.718 11.8789 107.452 11.5664C108.187 11.2461 109.015 11.0859 109.937 11.0859C110.835 11.0859 111.632 11.2344 112.327 11.5312C113.022 11.8281 113.604 12.25 114.073 12.7969C114.55 13.3438 114.909 14 115.151 14.7656C115.394 15.5234 115.515 16.3672 115.515 17.2969V18.7031H105.437V16.4531H112.198V16.1953C112.198 15.7266 112.112 15.3086 111.94 14.9414C111.776 14.5664 111.526 14.2695 111.19 14.0508C110.854 13.832 110.425 13.7227 109.901 13.7227C109.456 13.7227 109.073 13.8203 108.753 14.0156C108.433 14.2109 108.171 14.4844 107.968 14.8359C107.772 15.1875 107.624 15.6016 107.522 16.0781C107.429 16.5469 107.382 17.0625 107.382 17.625V18.0938C107.382 18.6016 107.452 19.0703 107.593 19.5C107.741 19.9297 107.948 20.3008 108.214 20.6133C108.487 20.9258 108.815 21.168 109.198 21.3398C109.589 21.5117 110.03 21.5977 110.522 21.5977C111.132 21.5977 111.698 21.4805 112.222 21.2461C112.753 21.0039 113.21 20.6406 113.593 20.1562L115.233 21.9375C114.968 22.3203 114.604 22.6875 114.144 23.0391C113.69 23.3906 113.144 23.6797 112.503 23.9062C111.862 24.125 111.132 24.2344 110.312 24.2344ZM120.812 14.0859V24H117.437V11.3203H120.612L120.812 14.0859ZM124.632 11.2383L124.573 14.3672C124.409 14.3438 124.21 14.3242 123.976 14.3086C123.749 14.2852 123.542 14.2734 123.354 14.2734C122.878 14.2734 122.464 14.3359 122.112 14.4609C121.769 14.5781 121.479 14.7539 121.245 14.9883C121.019 15.2227 120.847 15.5078 120.729 15.8438C120.62 16.1797 120.558 16.5625 120.542 16.9922L119.862 16.7812C119.862 15.9609 119.944 15.207 120.108 14.5195C120.272 13.8242 120.511 13.2188 120.823 12.7031C121.144 12.1875 121.534 11.7891 121.995 11.5078C122.456 11.2266 122.983 11.0859 123.577 11.0859C123.765 11.0859 123.956 11.1016 124.151 11.1328C124.347 11.1562 124.507 11.1914 124.632 11.2383ZM129.601 14.0859V24H126.226V11.3203H129.401L129.601 14.0859ZM133.421 11.2383L133.362 14.3672C133.198 14.3438 132.999 14.3242 132.765 14.3086C132.538 14.2852 132.331 14.2734 132.144 14.2734C131.667 14.2734 131.253 14.3359 130.901 14.4609C130.558 14.5781 130.269 14.7539 130.034 14.9883C129.808 15.2227 129.636 15.5078 129.519 15.8438C129.409 16.1797 129.347 16.5625 129.331 16.9922L128.651 16.7812C128.651 15.9609 128.733 15.207 128.897 14.5195C129.062 13.8242 129.3 13.2188 129.612 12.7031C129.933 12.1875 130.323 11.7891 130.784 11.5078C131.245 11.2266 131.772 11.0859 132.366 11.0859C132.554 11.0859 132.745 11.1016 132.94 11.1328C133.136 11.1562 133.296 11.1914 133.421 11.2383Z" fill="#94A3B8"/>
</svg>
