<svg width="447" height="444" viewBox="0 0 447 444" fill="none" xmlns="http://www.w3.org/2000/svg">
<path d="M226 217V11" stroke="#C084FC"/>
<path d="M226 217L421.918 153.343" stroke="#C084FC"/>
<path d="M226 217L347.084 383.657" stroke="#C084FC"/>
<path d="M226 217L104.916 383.657" stroke="#C084FC"/>
<path d="M226 217L30.0824 153.343" stroke="#C084FC"/>
<path d="M226 423C339.771 423 432 330.771 432 217C432 103.229 339.771 11 226 11C112.229 11 20 103.229 20 217C20 330.771 112.229 423 226 423Z" stroke="#C084FC"/>
<path d="M226 381.8C317.017 381.8 390.8 308.017 390.8 217C390.8 125.983 317.017 52.2 226 52.2C134.983 52.2 61.2 125.983 61.2 217C61.2 308.017 134.983 381.8 226 381.8Z" stroke="#C084FC"/>
<path d="M226 340.6C294.262 340.6 349.6 285.262 349.6 217C349.6 148.738 294.262 93.4 226 93.4C157.738 93.4 102.4 148.738 102.4 217C102.4 285.262 157.738 340.6 226 340.6Z" stroke="#C084FC"/>
<path d="M226 299.4C271.508 299.4 308.4 262.508 308.4 217C308.4 171.492 271.508 134.6 226 134.6C180.492 134.6 143.6 171.492 143.6 217C143.6 262.508 180.492 299.4 226 299.4Z" stroke="#C084FC"/>
<path d="M226 258.2C248.754 258.2 267.2 239.754 267.2 217C267.2 194.246 248.754 175.8 226 175.8C203.246 175.8 184.8 194.246 184.8 217C184.8 239.754 203.246 258.2 226 258.2Z" stroke="#C084FC"/>
<g style="mix-blend-mode:multiply">
<path d="M225.854 122.674L396.075 162.789L298.116 316.259L150.323 321.161L90.5863 173.001L225.854 122.674Z" fill="#D8B4FE"/>
<path d="M225.854 122.674L396.075 162.789L298.116 316.259L150.323 321.161L90.5863 173.001L225.854 122.674Z" stroke="#C084FC" stroke-width="2"/>
</g>
<g style="mix-blend-mode:multiply">
<path d="M226 64.0146L349.889 176.746L278.529 289.3L201.071 251.312L67.5372 165.512L226 64.0146Z" fill="#D8B4FE"/>
<path d="M226 64.0146L349.889 176.746L278.529 289.3L201.071 251.312L67.5372 165.512L226 64.0146Z" stroke="#9333EA" stroke-width="2"/>
</g>
<g filter="url(#filter0_dd_0_1)">
<rect x="8" y="209" width="24" height="24" rx="12" fill="white"/>
<rect x="6.5" y="207.5" width="27" height="27" rx="13.5" stroke="white" stroke-width="3"/>
</g>
<g filter="url(#filter1_dd_0_1)">
<rect x="35" y="69" width="40" height="40" rx="20" fill="white"/>
<rect x="32.5" y="66.5" width="45" height="45" rx="22.5" stroke="white" stroke-width="5"/>
</g>
<g filter="url(#filter2_dd_0_1)">
<rect x="252" y="355" width="40" height="40" rx="20" fill="white"/>
<rect x="249.5" y="352.5" width="45" height="45" rx="22.5" stroke="white" stroke-width="5"/>
</g>
<g filter="url(#filter3_dd_0_1)">
<rect x="361" y="158" width="40" height="40" rx="20" fill="white"/>
<rect x="358.5" y="155.5" width="45" height="45" rx="22.5" stroke="white" stroke-width="5"/>
</g>
<g filter="url(#filter4_dd_0_1)">
<rect x="340" y="98" width="24" height="24" rx="12" fill="white"/>
<rect x="338.5" y="96.5" width="27" height="27" rx="13.5" stroke="white" stroke-width="3"/>
</g>
<g filter="url(#filter5_dd_0_1)">
<rect x="248" y="84" width="40" height="40" rx="20" fill="white"/>
<rect x="245.5" y="81.5" width="45" height="45" rx="22.5" stroke="white" stroke-width="5"/>
</g>
<g filter="url(#filter6_dd_0_1)">
<rect x="164" y="6" width="24" height="24" rx="12" fill="white"/>
<rect x="162.5" y="4.5" width="27" height="27" rx="13.5" stroke="white" stroke-width="3"/>
</g>
<g filter="url(#filter7_dd_0_1)">
<rect x="127" y="385" width="40" height="40" rx="20" fill="white"/>
<rect x="124.5" y="382.5" width="45" height="45" rx="22.5" stroke="white" stroke-width="5"/>
</g>
<g filter="url(#filter8_dd_0_1)">
<rect x="193" y="273" width="40" height="40" rx="20" fill="white"/>
<rect x="190.5" y="270.5" width="45" height="45" rx="22.5" stroke="white" stroke-width="5"/>
</g>
<g filter="url(#filter9_dd_0_1)">
<rect x="153" y="142" width="40" height="40" rx="20" fill="white"/>
<rect x="150.5" y="139.5" width="45" height="45" rx="22.5" stroke="white" stroke-width="5"/>
</g>
<g filter="url(#filter10_dd_0_1)">
<rect x="415" y="247" width="24" height="24" rx="12" fill="white"/>
<rect x="413.5" y="245.5" width="27" height="27" rx="13.5" stroke="white" stroke-width="3"/>
</g>
<g filter="url(#filter11_dd_0_1)">
<rect x="62" y="272" width="40" height="40" rx="20" fill="white"/>
<rect x="59.5" y="269.5" width="45" height="45" rx="22.5" stroke="white" stroke-width="5"/>
</g>
<g filter="url(#filter12_dd_0_1)">
<rect x="348" y="306" width="24" height="24" rx="12" fill="white"/>
<rect x="346.5" y="304.5" width="27" height="27" rx="13.5" stroke="white" stroke-width="3"/>
</g>
<path fill-rule="evenodd" clip-rule="evenodd" d="M165.5 148C163.567 148 162 149.567 162 151.5V172.5C162 174.433 163.567 176 165.5 176H179.5C181.433 176 183 174.433 183 172.5V151.5C183 149.567 181.433 148 179.5 148H165.5ZM167.25 151.5C166.284 151.5 165.5 152.284 165.5 153.25C165.5 154.216 166.284 155 167.25 155H177.75C178.716 155 179.5 154.216 179.5 153.25C179.5 152.284 178.716 151.5 177.75 151.5H167.25ZM177.75 163.75C178.716 163.75 179.5 164.534 179.5 165.5V170.75C179.5 171.716 178.716 172.5 177.75 172.5C176.783 172.5 176 171.716 176 170.75V165.5C176 164.534 176.783 163.75 177.75 163.75ZM172.5 169C171.534 169 170.75 169.784 170.75 170.75C170.75 171.716 171.534 172.5 172.5 172.5H172.517C173.484 172.5 174.267 171.716 174.267 170.75C174.267 169.784 173.484 169 172.517 169H172.5ZM165.5 170.75C165.5 169.784 166.284 169 167.25 169H167.267C168.234 169 169.017 169.784 169.017 170.75C169.017 171.716 168.234 172.5 167.267 172.5H167.25C166.284 172.5 165.5 171.716 165.5 170.75ZM167.25 163.75C166.284 163.75 165.5 164.534 165.5 165.5C165.5 166.466 166.284 167.25 167.25 167.25H167.267C168.234 167.25 169.017 166.466 169.017 165.5C169.017 164.534 168.234 163.75 167.267 163.75H167.25ZM170.75 165.5C170.75 164.534 171.534 163.75 172.5 163.75H172.517C173.484 163.75 174.267 164.534 174.267 165.5C174.267 166.466 173.484 167.25 172.517 167.25H172.5C171.534 167.25 170.75 166.466 170.75 165.5ZM177.75 158.5C176.783 158.5 176 159.284 176 160.25C176 161.216 176.783 162 177.75 162H177.767C178.734 162 179.517 161.216 179.517 160.25C179.517 159.284 178.734 158.5 177.767 158.5H177.75ZM170.75 160.25C170.75 159.284 171.534 158.5 172.5 158.5H172.517C173.484 158.5 174.267 159.284 174.267 160.25C174.267 161.216 173.484 162 172.517 162H172.5C171.534 162 170.75 161.216 170.75 160.25ZM167.25 158.5C166.284 158.5 165.5 159.284 165.5 160.25C165.5 161.216 166.284 162 167.25 162H167.267C168.234 162 169.017 161.216 169.017 160.25C169.017 159.284 168.234 158.5 167.267 158.5H167.25Z" fill="#1E3A8A"/>
<path d="M201 293C201 286.373 206.373 281 213 281V293H225C225 299.627 219.627 305 213 305C206.373 305 201 299.627 201 293Z" fill="#19AD9C"/>
<path d="M216 281.378C220.217 282.463 223.537 285.783 224.622 290H216V281.378Z" fill="#19AD9C"/>
<path fill-rule="evenodd" clip-rule="evenodd" d="M353.757 102.034C354.034 102.107 354.266 102.296 354.395 102.553C354.878 103.52 355.239 104.107 355.602 104.583C355.97 105.065 356.358 105.459 356.95 106.05C358.316 107.417 359 109.21 359 111C359 112.79 358.316 114.583 356.95 115.95C354.216 118.683 349.784 118.683 347.05 115.95C345.684 114.583 345 112.79 345 111C345 109.21 345.684 107.417 347.05 106.05C347.336 105.764 347.766 105.679 348.14 105.834C348.514 105.988 348.757 106.353 348.757 106.757C348.757 107.877 348.827 108.73 349.155 109.411C349.335 109.785 349.616 110.151 350.1 110.478C350.216 109.417 350.428 108.124 350.714 106.898C350.939 105.932 351.219 104.968 351.553 104.164C351.72 103.761 351.909 103.379 352.123 103.048C352.331 102.726 352.599 102.399 352.945 102.168C353.184 102.009 353.48 101.96 353.757 102.034ZM354.121 115.121C352.95 116.293 351.05 116.293 349.879 115.121C349.293 114.536 349 113.768 349 113C349 113 349.879 113.5 351.5 113.5C351.5 112.5 352 109.5 352.75 109C353.25 110 353.536 110.293 354.121 110.879C354.707 111.464 355 112.232 355 113C355 113.768 354.707 114.536 354.121 115.121Z" fill="#DB1616"/>
<path d="M421.649 252.084C422.155 252.305 422.386 252.895 422.164 253.401C421.416 255.114 421 257.007 421 259C421 260.993 421.416 262.886 422.164 264.6C422.386 265.106 422.155 265.695 421.649 265.917C421.142 266.138 420.553 265.907 420.332 265.401C419.475 263.439 419 261.274 419 259C419 256.727 419.475 254.561 420.332 252.6C420.553 252.094 421.142 251.863 421.649 252.084Z" fill="#77787D"/>
<path d="M429.961 256C429.05 256 428.188 256.415 427.619 257.126L427.291 257.536L427.18 257.257C426.876 256.498 426.141 256 425.323 256H425C424.448 256 424 256.448 424 257C424 257.553 424.448 258 425 258H425.323L425.855 259.331L424.82 260.625C424.63 260.862 424.343 261 424.039 261H424C423.448 261 423 261.448 423 262C423 262.553 423.448 263 424 263H424.039C424.95 263 425.812 262.586 426.381 261.874L426.709 261.465L426.82 261.743C427.124 262.502 427.859 263 428.677 263H429C429.552 263 430 262.553 430 262C430 261.448 429.552 261 429 261H428.677L428.145 259.67L429.18 258.376C429.37 258.138 429.657 258 429.961 258H430C430.552 258 431 257.553 431 257C431 256.448 430.552 256 430 256H429.961Z" fill="#77787D"/>
<path d="M431.836 253.401C431.614 252.895 431.845 252.305 432.351 252.084C432.858 251.863 433.447 252.094 433.668 252.6C434.525 254.561 435 256.727 435 259C435 261.274 434.525 263.439 433.668 265.401C433.447 265.907 432.858 266.138 432.351 265.917C431.845 265.695 431.614 265.106 431.836 264.6C432.584 262.886 433 260.993 433 259C433 257.007 432.584 255.114 431.836 253.401Z" fill="#77787D"/>
<path fill-rule="evenodd" clip-rule="evenodd" d="M267.5 117C274.404 117 280 111.404 280 104.5C280 97.5964 274.404 92 267.5 92C260.596 92 255 97.5964 255 104.5C255 111.404 260.596 117 267.5 117ZM262.812 102.938C263.675 102.938 264.375 102.238 264.375 101.375C264.375 100.512 263.675 99.8125 262.812 99.8125C261.95 99.8125 261.25 100.512 261.25 101.375C261.25 102.238 261.95 102.938 262.812 102.938ZM273.75 101.375C273.75 102.238 273.05 102.938 272.188 102.938C271.325 102.938 270.625 102.238 270.625 101.375C270.625 100.512 271.325 99.8125 272.188 99.8125C273.05 99.8125 273.75 100.512 273.75 101.375ZM273.024 110.024C273.634 109.414 273.634 108.425 273.024 107.814C272.414 107.204 271.425 107.204 270.815 107.814C268.984 109.645 266.016 109.645 264.185 107.814C263.575 107.204 262.586 107.204 261.976 107.814C261.366 108.425 261.366 109.414 261.976 110.024C265.027 113.075 269.973 113.075 273.024 110.024Z" fill="#C4DD2C"/>
<path fill-rule="evenodd" clip-rule="evenodd" d="M273.451 362.07C274.075 362.266 274.5 362.845 274.5 363.5V371L280.5 371C281.059 371 281.572 371.311 281.83 371.807C282.089 372.303 282.05 372.902 281.729 373.36L271.229 388.36C270.853 388.896 270.173 389.127 269.549 388.93C268.925 388.734 268.5 388.155 268.5 387.5L268.5 380H262.5C261.941 380 261.428 379.689 261.17 379.193C260.911 378.697 260.95 378.098 261.271 377.64L271.771 362.64C272.147 362.104 272.827 361.873 273.451 362.07Z" fill="#4079FF"/>
<path fill-rule="evenodd" clip-rule="evenodd" d="M173 10C171.895 10 171 10.8954 171 12V24C171 25.1046 171.895 26 173 26H179C180.105 26 181 25.1046 181 24V12C181 10.8954 180.105 10 179 10H173ZM176 24C176.552 24 177 23.5523 177 23C177 22.4477 176.552 22 176 22C175.448 22 175 22.4477 175 23C175 23.5523 175.448 24 176 24Z" fill="url(#paint0_linear_0_1)"/>
<path d="M373.75 170.4C373.75 169.654 373.146 169.05 372.4 169.05C371.654 169.05 371.05 169.654 371.05 170.4V180.211C370.243 180.678 369.7 181.551 369.7 182.55C369.7 183.549 370.243 184.422 371.05 184.889V186.6C371.05 187.346 371.654 187.95 372.4 187.95C373.146 187.95 373.75 187.346 373.75 186.6V184.889C374.557 184.422 375.1 183.549 375.1 182.55C375.1 181.551 374.557 180.678 373.75 180.211V170.4Z" fill="#6600A5"/>
<path d="M381.85 170.4C381.85 169.654 381.246 169.05 380.5 169.05C379.754 169.05 379.15 169.654 379.15 170.4V172.111C378.343 172.578 377.8 173.451 377.8 174.45C377.8 175.449 378.343 176.322 379.15 176.789V186.6C379.15 187.346 379.754 187.95 380.5 187.95C381.246 187.95 381.85 187.346 381.85 186.6V176.789C382.657 176.322 383.2 175.449 383.2 174.45C383.2 173.451 382.657 172.578 381.85 172.111V170.4Z" fill="#6600A5"/>
<path d="M388.6 169.05C389.346 169.05 389.95 169.654 389.95 170.4V180.211C390.757 180.678 391.3 181.551 391.3 182.55C391.3 183.549 390.757 184.422 389.95 184.889V186.6C389.95 187.346 389.346 187.95 388.6 187.95C387.854 187.95 387.25 187.346 387.25 186.6V184.889C386.443 184.422 385.9 183.549 385.9 182.55C385.9 181.551 386.443 180.678 387.25 180.211V170.4C387.25 169.654 387.854 169.05 388.6 169.05Z" fill="#6600A5"/>
<path fill-rule="evenodd" clip-rule="evenodd" d="M352.166 312.999C355.174 312.958 357.915 311.81 360 309.944C362.085 311.81 364.826 312.958 367.834 312.999C367.943 313.65 368 314.318 368 315C368 320.225 364.661 324.67 360 326.317C355.339 324.67 352 320.225 352 315C352 314.318 352.057 313.65 352.166 312.999ZM363.707 316.707C364.098 316.317 364.098 315.683 363.707 315.293C363.317 314.902 362.683 314.902 362.293 315.293L359 318.586L357.707 317.293C357.317 316.902 356.683 316.902 356.293 317.293C355.902 317.683 355.902 318.317 356.293 318.707L358.293 320.707C358.683 321.098 359.317 321.098 359.707 320.707L363.707 316.707Z" fill="#008D41"/>
<path d="M146.05 393.9C145.249 393.9 144.6 394.549 144.6 395.35C144.6 396.151 145.249 396.8 146.05 396.8H148.95C149.751 396.8 150.4 396.151 150.4 395.35C150.4 394.549 149.751 393.9 148.95 393.9H146.05Z" fill="#4C0032"/>
<path fill-rule="evenodd" clip-rule="evenodd" d="M138.8 398.25C138.8 396.648 140.098 395.35 141.7 395.35C141.7 397.752 143.648 399.7 146.05 399.7H148.95C151.352 399.7 153.3 397.752 153.3 395.35C154.902 395.35 156.2 396.648 156.2 398.25V414.2C156.2 415.802 154.902 417.1 153.3 417.1H141.7C140.098 417.1 138.8 415.802 138.8 414.2V398.25ZM143.15 404.05C142.349 404.05 141.7 404.699 141.7 405.5C141.7 406.301 142.349 406.95 143.15 406.95H143.165C143.965 406.95 144.615 406.301 144.615 405.5C144.615 404.699 143.965 404.05 143.165 404.05H143.15ZM147.5 404.05C146.699 404.05 146.05 404.699 146.05 405.5C146.05 406.301 146.699 406.95 147.5 406.95H151.85C152.651 406.95 153.3 406.301 153.3 405.5C153.3 404.699 152.651 404.05 151.85 404.05H147.5ZM143.15 409.85C142.349 409.85 141.7 410.499 141.7 411.3C141.7 412.101 142.349 412.75 143.15 412.75H143.165C143.965 412.75 144.615 412.101 144.615 411.3C144.615 410.499 143.965 409.85 143.165 409.85H143.15ZM147.5 409.85C146.699 409.85 146.05 410.499 146.05 411.3C146.05 412.101 146.699 412.75 147.5 412.75H151.85C152.651 412.75 153.3 412.101 153.3 411.3C153.3 410.499 152.651 409.85 151.85 409.85H147.5Z" fill="#4C0032"/>
<path fill-rule="evenodd" clip-rule="evenodd" d="M74.5 281.5C72.8431 281.5 71.5 282.843 71.5 284.5V299.5C71.5 301.157 72.8431 302.5 74.5 302.5H89.5C91.1569 302.5 92.5 301.157 92.5 299.5V284.5C92.5 282.843 91.1569 281.5 89.5 281.5H74.5ZM88 287.5C88 286.672 87.3284 286 86.5 286C85.6716 286 85 286.672 85 287.5V296.5C85 297.328 85.6716 298 86.5 298C87.3284 298 88 297.328 88 296.5V287.5ZM83.5 290.5C83.5 289.672 82.8284 289 82 289C81.1716 289 80.5 289.672 80.5 290.5V296.5C80.5 297.328 81.1716 298 82 298C82.8284 298 83.5 297.328 83.5 296.5V290.5ZM79 295C79 294.172 78.3284 293.5 77.5 293.5C76.6716 293.5 76 294.172 76 295V296.5C76 297.328 76.6716 298 77.5 298C78.3284 298 79 297.328 79 296.5V295Z" fill="#C3660F"/>
<path d="M55 77.8C54.2268 77.8 53.6 78.4268 53.6 79.2V80.6C53.6 81.3732 54.2268 82 55 82C55.7732 82 56.4 81.3732 56.4 80.6V79.2C56.4 78.4268 55.7732 77.8 55 77.8Z" fill="#AC84BA"/>
<path fill-rule="evenodd" clip-rule="evenodd" d="M46.6 80.6H50.8C50.8 82.9196 52.6804 84.8 55 84.8C57.3196 84.8 59.2 82.9196 59.2 80.6H63.4C64.9464 80.6 66.2 81.8536 66.2 83.4V96C66.2 97.5464 64.9464 98.8 63.4 98.8H46.6C45.0536 98.8 43.8 97.5464 43.8 96V83.4C43.8 81.8536 45.0536 80.6 46.6 80.6ZM50.1 90.4C51.2598 90.4 52.2 89.4598 52.2 88.3C52.2 87.1402 51.2598 86.2 50.1 86.2C48.9402 86.2 48 87.1402 48 88.3C48 89.4598 48.9402 90.4 50.1 90.4ZM53.5307 96C53.5766 95.7738 53.6007 95.5397 53.6007 95.3C53.6007 93.367 52.0337 91.8 50.1007 91.8C48.1677 91.8 46.6007 93.367 46.6007 95.3C46.6007 95.5397 46.6248 95.7738 46.6707 96H53.5307ZM57.8 87.6C57.0268 87.6 56.4 88.2268 56.4 89C56.4 89.7732 57.0268 90.4 57.8 90.4H62C62.7732 90.4 63.4 89.7732 63.4 89C63.4 88.2268 62.7732 87.6 62 87.6H57.8ZM56.4 93.2C56.4 92.4268 57.0268 91.8 57.8 91.8H60.6C61.3732 91.8 62 92.4268 62 93.2C62 93.9732 61.3732 94.6 60.6 94.6H57.8C57.0268 94.6 56.4 93.9732 56.4 93.2Z" fill="#AC84BA"/>
<path fill-rule="evenodd" clip-rule="evenodd" d="M19.5 214C19.9487 214 20.3125 214.364 20.3125 214.812V215.887L23.5254 217.173L24.824 216.523C25.2253 216.323 25.7134 216.485 25.914 216.887C26.1147 217.288 25.952 217.776 25.5507 217.977L24.5488 218.478L25.961 222.881C26.0589 223.187 25.9681 223.521 25.7292 223.735C25.1548 224.249 24.3942 224.562 23.5624 224.562C22.7305 224.562 21.97 224.249 21.3956 223.735C21.1567 223.521 21.0658 223.187 21.1638 222.881L22.5574 218.536L20.3125 217.638V225.375H21.9374C22.3862 225.375 22.7499 225.739 22.7499 226.188C22.7499 226.636 22.3862 227 21.9374 227H17.0626C16.6138 227 16.2501 226.636 16.2501 226.188C16.2501 225.739 16.6138 225.375 17.0626 225.375H18.6875V217.638L16.4426 218.536L17.8362 222.881C17.9342 223.187 17.8433 223.521 17.6044 223.735C17.03 224.249 16.2695 224.562 15.4376 224.562C14.6058 224.562 13.8452 224.249 13.2708 223.735C13.0319 223.521 12.9411 223.187 13.039 222.881L14.4512 218.478L13.4493 217.977C13.048 217.776 12.8853 217.288 13.086 216.887C13.2866 216.485 13.7747 216.323 14.176 216.523L15.4746 217.173L18.6875 215.887V214.812C18.6875 214.364 19.0513 214 19.5 214ZM15.4376 220.723L14.7728 222.796C14.9756 222.887 15.2004 222.937 15.4376 222.937C15.6748 222.937 15.8996 222.887 16.1024 222.796L15.4376 220.723ZM23.5624 220.723L22.8976 222.796C23.1004 222.887 23.3252 222.937 23.5624 222.937C23.7996 222.937 24.0244 222.887 24.2272 222.796L23.5624 220.723Z" fill="#4C01AB"/>
<defs>
<filter id="filter0_dd_0_1" x="0.5" y="203.75" width="39" height="40.5" filterUnits="userSpaceOnUse" color-interpolation-filters="sRGB">
<feFlood flood-opacity="0" result="BackgroundImageFix"/>
<feColorMatrix in="SourceAlpha" type="matrix" values="0 0 0 0 0 0 0 0 0 0 0 0 0 0 0 0 0 0 127 0" result="hardAlpha"/>
<feOffset/>
<feGaussianBlur stdDeviation="1.125"/>
<feColorMatrix type="matrix" values="0 0 0 0 0 0 0 0 0 0 0 0 0 0 0 0 0 0 0.07 0"/>
<feBlend mode="normal" in2="BackgroundImageFix" result="effect1_dropShadow_0_1"/>
<feColorMatrix in="SourceAlpha" type="matrix" values="0 0 0 0 0 0 0 0 0 0 0 0 0 0 0 0 0 0 127 0" result="hardAlpha"/>
<feMorphology radius="1.125" operator="erode" in="SourceAlpha" result="effect2_dropShadow_0_1"/>
<feOffset dy="3.75"/>
<feGaussianBlur stdDeviation="2.8125"/>
<feColorMatrix type="matrix" values="0 0 0 0 0 0 0 0 0 0 0 0 0 0 0 0 0 0 0.1 0"/>
<feBlend mode="normal" in2="effect1_dropShadow_0_1" result="effect2_dropShadow_0_1"/>
<feBlend mode="normal" in="SourceGraphic" in2="effect2_dropShadow_0_1" result="shape"/>
</filter>
<filter id="filter1_dd_0_1" x="22.5" y="60.25" width="65" height="67.5" filterUnits="userSpaceOnUse" color-interpolation-filters="sRGB">
<feFlood flood-opacity="0" result="BackgroundImageFix"/>
<feColorMatrix in="SourceAlpha" type="matrix" values="0 0 0 0 0 0 0 0 0 0 0 0 0 0 0 0 0 0 127 0" result="hardAlpha"/>
<feOffset/>
<feGaussianBlur stdDeviation="1.875"/>
<feColorMatrix type="matrix" values="0 0 0 0 0 0 0 0 0 0 0 0 0 0 0 0 0 0 0.07 0"/>
<feBlend mode="normal" in2="BackgroundImageFix" result="effect1_dropShadow_0_1"/>
<feColorMatrix in="SourceAlpha" type="matrix" values="0 0 0 0 0 0 0 0 0 0 0 0 0 0 0 0 0 0 127 0" result="hardAlpha"/>
<feMorphology radius="1.875" operator="erode" in="SourceAlpha" result="effect2_dropShadow_0_1"/>
<feOffset dy="6.25"/>
<feGaussianBlur stdDeviation="4.6875"/>
<feColorMatrix type="matrix" values="0 0 0 0 0 0 0 0 0 0 0 0 0 0 0 0 0 0 0.1 0"/>
<feBlend mode="normal" in2="effect1_dropShadow_0_1" result="effect2_dropShadow_0_1"/>
<feBlend mode="normal" in="SourceGraphic" in2="effect2_dropShadow_0_1" result="shape"/>
</filter>
<filter id="filter2_dd_0_1" x="239.5" y="346.25" width="65" height="67.5" filterUnits="userSpaceOnUse" color-interpolation-filters="sRGB">
<feFlood flood-opacity="0" result="BackgroundImageFix"/>
<feColorMatrix in="SourceAlpha" type="matrix" values="0 0 0 0 0 0 0 0 0 0 0 0 0 0 0 0 0 0 127 0" result="hardAlpha"/>
<feOffset/>
<feGaussianBlur stdDeviation="1.875"/>
<feColorMatrix type="matrix" values="0 0 0 0 0 0 0 0 0 0 0 0 0 0 0 0 0 0 0.07 0"/>
<feBlend mode="normal" in2="BackgroundImageFix" result="effect1_dropShadow_0_1"/>
<feColorMatrix in="SourceAlpha" type="matrix" values="0 0 0 0 0 0 0 0 0 0 0 0 0 0 0 0 0 0 127 0" result="hardAlpha"/>
<feMorphology radius="1.875" operator="erode" in="SourceAlpha" result="effect2_dropShadow_0_1"/>
<feOffset dy="6.25"/>
<feGaussianBlur stdDeviation="4.6875"/>
<feColorMatrix type="matrix" values="0 0 0 0 0 0 0 0 0 0 0 0 0 0 0 0 0 0 0.1 0"/>
<feBlend mode="normal" in2="effect1_dropShadow_0_1" result="effect2_dropShadow_0_1"/>
<feBlend mode="normal" in="SourceGraphic" in2="effect2_dropShadow_0_1" result="shape"/>
</filter>
<filter id="filter3_dd_0_1" x="348.5" y="149.25" width="65" height="67.5" filterUnits="userSpaceOnUse" color-interpolation-filters="sRGB">
<feFlood flood-opacity="0" result="BackgroundImageFix"/>
<feColorMatrix in="SourceAlpha" type="matrix" values="0 0 0 0 0 0 0 0 0 0 0 0 0 0 0 0 0 0 127 0" result="hardAlpha"/>
<feOffset/>
<feGaussianBlur stdDeviation="1.875"/>
<feColorMatrix type="matrix" values="0 0 0 0 0 0 0 0 0 0 0 0 0 0 0 0 0 0 0.07 0"/>
<feBlend mode="normal" in2="BackgroundImageFix" result="effect1_dropShadow_0_1"/>
<feColorMatrix in="SourceAlpha" type="matrix" values="0 0 0 0 0 0 0 0 0 0 0 0 0 0 0 0 0 0 127 0" result="hardAlpha"/>
<feMorphology radius="1.875" operator="erode" in="SourceAlpha" result="effect2_dropShadow_0_1"/>
<feOffset dy="6.25"/>
<feGaussianBlur stdDeviation="4.6875"/>
<feColorMatrix type="matrix" values="0 0 0 0 0 0 0 0 0 0 0 0 0 0 0 0 0 0 0.1 0"/>
<feBlend mode="normal" in2="effect1_dropShadow_0_1" result="effect2_dropShadow_0_1"/>
<feBlend mode="normal" in="SourceGraphic" in2="effect2_dropShadow_0_1" result="shape"/>
</filter>
<filter id="filter4_dd_0_1" x="332.5" y="92.75" width="39" height="40.5" filterUnits="userSpaceOnUse" color-interpolation-filters="sRGB">
<feFlood flood-opacity="0" result="BackgroundImageFix"/>
<feColorMatrix in="SourceAlpha" type="matrix" values="0 0 0 0 0 0 0 0 0 0 0 0 0 0 0 0 0 0 127 0" result="hardAlpha"/>
<feOffset/>
<feGaussianBlur stdDeviation="1.125"/>
<feColorMatrix type="matrix" values="0 0 0 0 0 0 0 0 0 0 0 0 0 0 0 0 0 0 0.07 0"/>
<feBlend mode="normal" in2="BackgroundImageFix" result="effect1_dropShadow_0_1"/>
<feColorMatrix in="SourceAlpha" type="matrix" values="0 0 0 0 0 0 0 0 0 0 0 0 0 0 0 0 0 0 127 0" result="hardAlpha"/>
<feMorphology radius="1.125" operator="erode" in="SourceAlpha" result="effect2_dropShadow_0_1"/>
<feOffset dy="3.75"/>
<feGaussianBlur stdDeviation="2.8125"/>
<feColorMatrix type="matrix" values="0 0 0 0 0 0 0 0 0 0 0 0 0 0 0 0 0 0 0.1 0"/>
<feBlend mode="normal" in2="effect1_dropShadow_0_1" result="effect2_dropShadow_0_1"/>
<feBlend mode="normal" in="SourceGraphic" in2="effect2_dropShadow_0_1" result="shape"/>
</filter>
<filter id="filter5_dd_0_1" x="235.5" y="75.25" width="65" height="67.5" filterUnits="userSpaceOnUse" color-interpolation-filters="sRGB">
<feFlood flood-opacity="0" result="BackgroundImageFix"/>
<feColorMatrix in="SourceAlpha" type="matrix" values="0 0 0 0 0 0 0 0 0 0 0 0 0 0 0 0 0 0 127 0" result="hardAlpha"/>
<feOffset/>
<feGaussianBlur stdDeviation="1.875"/>
<feColorMatrix type="matrix" values="0 0 0 0 0 0 0 0 0 0 0 0 0 0 0 0 0 0 0.07 0"/>
<feBlend mode="normal" in2="BackgroundImageFix" result="effect1_dropShadow_0_1"/>
<feColorMatrix in="SourceAlpha" type="matrix" values="0 0 0 0 0 0 0 0 0 0 0 0 0 0 0 0 0 0 127 0" result="hardAlpha"/>
<feMorphology radius="1.875" operator="erode" in="SourceAlpha" result="effect2_dropShadow_0_1"/>
<feOffset dy="6.25"/>
<feGaussianBlur stdDeviation="4.6875"/>
<feColorMatrix type="matrix" values="0 0 0 0 0 0 0 0 0 0 0 0 0 0 0 0 0 0 0.1 0"/>
<feBlend mode="normal" in2="effect1_dropShadow_0_1" result="effect2_dropShadow_0_1"/>
<feBlend mode="normal" in="SourceGraphic" in2="effect2_dropShadow_0_1" result="shape"/>
</filter>
<filter id="filter6_dd_0_1" x="156.5" y="0.75" width="39" height="40.5" filterUnits="userSpaceOnUse" color-interpolation-filters="sRGB">
<feFlood flood-opacity="0" result="BackgroundImageFix"/>
<feColorMatrix in="SourceAlpha" type="matrix" values="0 0 0 0 0 0 0 0 0 0 0 0 0 0 0 0 0 0 127 0" result="hardAlpha"/>
<feOffset/>
<feGaussianBlur stdDeviation="1.125"/>
<feColorMatrix type="matrix" values="0 0 0 0 0 0 0 0 0 0 0 0 0 0 0 0 0 0 0.07 0"/>
<feBlend mode="normal" in2="BackgroundImageFix" result="effect1_dropShadow_0_1"/>
<feColorMatrix in="SourceAlpha" type="matrix" values="0 0 0 0 0 0 0 0 0 0 0 0 0 0 0 0 0 0 127 0" result="hardAlpha"/>
<feMorphology radius="1.125" operator="erode" in="SourceAlpha" result="effect2_dropShadow_0_1"/>
<feOffset dy="3.75"/>
<feGaussianBlur stdDeviation="2.8125"/>
<feColorMatrix type="matrix" values="0 0 0 0 0 0 0 0 0 0 0 0 0 0 0 0 0 0 0.1 0"/>
<feBlend mode="normal" in2="effect1_dropShadow_0_1" result="effect2_dropShadow_0_1"/>
<feBlend mode="normal" in="SourceGraphic" in2="effect2_dropShadow_0_1" result="shape"/>
</filter>
<filter id="filter7_dd_0_1" x="114.5" y="376.25" width="65" height="67.5" filterUnits="userSpaceOnUse" color-interpolation-filters="sRGB">
<feFlood flood-opacity="0" result="BackgroundImageFix"/>
<feColorMatrix in="SourceAlpha" type="matrix" values="0 0 0 0 0 0 0 0 0 0 0 0 0 0 0 0 0 0 127 0" result="hardAlpha"/>
<feOffset/>
<feGaussianBlur stdDeviation="1.875"/>
<feColorMatrix type="matrix" values="0 0 0 0 0 0 0 0 0 0 0 0 0 0 0 0 0 0 0.07 0"/>
<feBlend mode="normal" in2="BackgroundImageFix" result="effect1_dropShadow_0_1"/>
<feColorMatrix in="SourceAlpha" type="matrix" values="0 0 0 0 0 0 0 0 0 0 0 0 0 0 0 0 0 0 127 0" result="hardAlpha"/>
<feMorphology radius="1.875" operator="erode" in="SourceAlpha" result="effect2_dropShadow_0_1"/>
<feOffset dy="6.25"/>
<feGaussianBlur stdDeviation="4.6875"/>
<feColorMatrix type="matrix" values="0 0 0 0 0 0 0 0 0 0 0 0 0 0 0 0 0 0 0.1 0"/>
<feBlend mode="normal" in2="effect1_dropShadow_0_1" result="effect2_dropShadow_0_1"/>
<feBlend mode="normal" in="SourceGraphic" in2="effect2_dropShadow_0_1" result="shape"/>
</filter>
<filter id="filter8_dd_0_1" x="180.5" y="264.25" width="65" height="67.5" filterUnits="userSpaceOnUse" color-interpolation-filters="sRGB">
<feFlood flood-opacity="0" result="BackgroundImageFix"/>
<feColorMatrix in="SourceAlpha" type="matrix" values="0 0 0 0 0 0 0 0 0 0 0 0 0 0 0 0 0 0 127 0" result="hardAlpha"/>
<feOffset/>
<feGaussianBlur stdDeviation="1.875"/>
<feColorMatrix type="matrix" values="0 0 0 0 0 0 0 0 0 0 0 0 0 0 0 0 0 0 0.07 0"/>
<feBlend mode="normal" in2="BackgroundImageFix" result="effect1_dropShadow_0_1"/>
<feColorMatrix in="SourceAlpha" type="matrix" values="0 0 0 0 0 0 0 0 0 0 0 0 0 0 0 0 0 0 127 0" result="hardAlpha"/>
<feMorphology radius="1.875" operator="erode" in="SourceAlpha" result="effect2_dropShadow_0_1"/>
<feOffset dy="6.25"/>
<feGaussianBlur stdDeviation="4.6875"/>
<feColorMatrix type="matrix" values="0 0 0 0 0 0 0 0 0 0 0 0 0 0 0 0 0 0 0.1 0"/>
<feBlend mode="normal" in2="effect1_dropShadow_0_1" result="effect2_dropShadow_0_1"/>
<feBlend mode="normal" in="SourceGraphic" in2="effect2_dropShadow_0_1" result="shape"/>
</filter>
<filter id="filter9_dd_0_1" x="140.5" y="133.25" width="65" height="67.5" filterUnits="userSpaceOnUse" color-interpolation-filters="sRGB">
<feFlood flood-opacity="0" result="BackgroundImageFix"/>
<feColorMatrix in="SourceAlpha" type="matrix" values="0 0 0 0 0 0 0 0 0 0 0 0 0 0 0 0 0 0 127 0" result="hardAlpha"/>
<feOffset/>
<feGaussianBlur stdDeviation="1.875"/>
<feColorMatrix type="matrix" values="0 0 0 0 0 0 0 0 0 0 0 0 0 0 0 0 0 0 0.07 0"/>
<feBlend mode="normal" in2="BackgroundImageFix" result="effect1_dropShadow_0_1"/>
<feColorMatrix in="SourceAlpha" type="matrix" values="0 0 0 0 0 0 0 0 0 0 0 0 0 0 0 0 0 0 127 0" result="hardAlpha"/>
<feMorphology radius="1.875" operator="erode" in="SourceAlpha" result="effect2_dropShadow_0_1"/>
<feOffset dy="6.25"/>
<feGaussianBlur stdDeviation="4.6875"/>
<feColorMatrix type="matrix" values="0 0 0 0 0 0 0 0 0 0 0 0 0 0 0 0 0 0 0.1 0"/>
<feBlend mode="normal" in2="effect1_dropShadow_0_1" result="effect2_dropShadow_0_1"/>
<feBlend mode="normal" in="SourceGraphic" in2="effect2_dropShadow_0_1" result="shape"/>
</filter>
<filter id="filter10_dd_0_1" x="407.5" y="241.75" width="39" height="40.5" filterUnits="userSpaceOnUse" color-interpolation-filters="sRGB">
<feFlood flood-opacity="0" result="BackgroundImageFix"/>
<feColorMatrix in="SourceAlpha" type="matrix" values="0 0 0 0 0 0 0 0 0 0 0 0 0 0 0 0 0 0 127 0" result="hardAlpha"/>
<feOffset/>
<feGaussianBlur stdDeviation="1.125"/>
<feColorMatrix type="matrix" values="0 0 0 0 0 0 0 0 0 0 0 0 0 0 0 0 0 0 0.07 0"/>
<feBlend mode="normal" in2="BackgroundImageFix" result="effect1_dropShadow_0_1"/>
<feColorMatrix in="SourceAlpha" type="matrix" values="0 0 0 0 0 0 0 0 0 0 0 0 0 0 0 0 0 0 127 0" result="hardAlpha"/>
<feMorphology radius="1.125" operator="erode" in="SourceAlpha" result="effect2_dropShadow_0_1"/>
<feOffset dy="3.75"/>
<feGaussianBlur stdDeviation="2.8125"/>
<feColorMatrix type="matrix" values="0 0 0 0 0 0 0 0 0 0 0 0 0 0 0 0 0 0 0.1 0"/>
<feBlend mode="normal" in2="effect1_dropShadow_0_1" result="effect2_dropShadow_0_1"/>
<feBlend mode="normal" in="SourceGraphic" in2="effect2_dropShadow_0_1" result="shape"/>
</filter>
<filter id="filter11_dd_0_1" x="49.5" y="263.25" width="65" height="67.5" filterUnits="userSpaceOnUse" color-interpolation-filters="sRGB">
<feFlood flood-opacity="0" result="BackgroundImageFix"/>
<feColorMatrix in="SourceAlpha" type="matrix" values="0 0 0 0 0 0 0 0 0 0 0 0 0 0 0 0 0 0 127 0" result="hardAlpha"/>
<feOffset/>
<feGaussianBlur stdDeviation="1.875"/>
<feColorMatrix type="matrix" values="0 0 0 0 0 0 0 0 0 0 0 0 0 0 0 0 0 0 0.07 0"/>
<feBlend mode="normal" in2="BackgroundImageFix" result="effect1_dropShadow_0_1"/>
<feColorMatrix in="SourceAlpha" type="matrix" values="0 0 0 0 0 0 0 0 0 0 0 0 0 0 0 0 0 0 127 0" result="hardAlpha"/>
<feMorphology radius="1.875" operator="erode" in="SourceAlpha" result="effect2_dropShadow_0_1"/>
<feOffset dy="6.25"/>
<feGaussianBlur stdDeviation="4.6875"/>
<feColorMatrix type="matrix" values="0 0 0 0 0 0 0 0 0 0 0 0 0 0 0 0 0 0 0.1 0"/>
<feBlend mode="normal" in2="effect1_dropShadow_0_1" result="effect2_dropShadow_0_1"/>
<feBlend mode="normal" in="SourceGraphic" in2="effect2_dropShadow_0_1" result="shape"/>
</filter>
<filter id="filter12_dd_0_1" x="340.5" y="300.75" width="39" height="40.5" filterUnits="userSpaceOnUse" color-interpolation-filters="sRGB">
<feFlood flood-opacity="0" result="BackgroundImageFix"/>
<feColorMatrix in="SourceAlpha" type="matrix" values="0 0 0 0 0 0 0 0 0 0 0 0 0 0 0 0 0 0 127 0" result="hardAlpha"/>
<feOffset/>
<feGaussianBlur stdDeviation="1.125"/>
<feColorMatrix type="matrix" values="0 0 0 0 0 0 0 0 0 0 0 0 0 0 0 0 0 0 0.07 0"/>
<feBlend mode="normal" in2="BackgroundImageFix" result="effect1_dropShadow_0_1"/>
<feColorMatrix in="SourceAlpha" type="matrix" values="0 0 0 0 0 0 0 0 0 0 0 0 0 0 0 0 0 0 127 0" result="hardAlpha"/>
<feMorphology radius="1.125" operator="erode" in="SourceAlpha" result="effect2_dropShadow_0_1"/>
<feOffset dy="3.75"/>
<feGaussianBlur stdDeviation="2.8125"/>
<feColorMatrix type="matrix" values="0 0 0 0 0 0 0 0 0 0 0 0 0 0 0 0 0 0 0.1 0"/>
<feBlend mode="normal" in2="effect1_dropShadow_0_1" result="effect2_dropShadow_0_1"/>
<feBlend mode="normal" in="SourceGraphic" in2="effect2_dropShadow_0_1" result="shape"/>
</filter>
<linearGradient id="paint0_linear_0_1" x1="176" y1="10" x2="176" y2="26" gradientUnits="userSpaceOnUse">
<stop stop-color="#D9D9D9"/>
<stop offset="1" stop-color="#A6A6A6"/>
</linearGradient>
</defs>
</svg>
