<svg width="24" height="24" viewBox="0 0 24 24" fill="none" xmlns="http://www.w3.org/2000/svg">
<path d="M15.4 22H8.6C8.26863 22 8 21.7314 8 21.4V2.6C8 2.26863 8.26863 2 8.6 2H15.4C15.7314 2 16 2.26863 16 2.6V21.4C16 21.7314 15.7314 22 15.4 22Z" stroke="#1e40af" stroke-width="1.5" stroke-linecap="round" stroke-linejoin="round"/>
<path d="M16 17H13" stroke="#1e40af" stroke-width="1.5" stroke-linecap="round" stroke-linejoin="round"/>
<path d="M16 7H13" stroke="#1e40af" stroke-width="1.5" stroke-linecap="round" stroke-linejoin="round"/>
<path d="M23 12L21 10M13 12H23H13ZM23 12L21 14L23 12Z" stroke="#1e40af" stroke-width="1.5" stroke-linecap="round" stroke-linejoin="round"/>
<path d="M1 12H8M1 12L3 10L1 12ZM1 12L3 14L1 12Z" stroke="#1e40af" stroke-width="1.5" stroke-linecap="round" stroke-linejoin="round"/>
</svg>
