<svg width="809" height="609" viewBox="0 0 809 609" fill="none" xmlns="http://www.w3.org/2000/svg">
<g filter="url(#filter0_d_1_5112)">
<g clip-path="url(#clip0_1_5112)">
<rect x="30.8739" y="30" width="748.126" height="548.626" rx="20" fill="white"/>
<g clip-path="url(#clip1_1_5112)">
<path d="M51.8739 54.6937C49.5727 54.6937 47.7073 52.8283 47.7073 50.5271C47.7073 48.2258 49.5727 46.3604 51.8739 46.3604C54.1752 46.3604 56.0406 48.2258 56.0406 50.5271C56.0406 52.8283 54.1752 54.6937 51.8739 54.6937Z" fill="#E11D48"/>
</g>
<g clip-path="url(#clip2_1_5112)">
<path d="M66.8739 54.6937C64.5727 54.6937 62.7073 52.8283 62.7073 50.5271C62.7073 48.2258 64.5727 46.3604 66.8739 46.3604C69.1752 46.3604 71.0406 48.2258 71.0406 50.5271C71.0406 52.8283 69.1752 54.6937 66.8739 54.6937Z" fill="#FBBF24"/>
</g>
<g clip-path="url(#clip3_1_5112)">
<path d="M81.8739 54.6937C79.5727 54.6937 77.7073 52.8283 77.7073 50.5271C77.7073 48.2258 79.5727 46.3604 81.8739 46.3604C84.1752 46.3604 86.0406 48.2258 86.0406 50.5271C86.0406 52.8283 84.1752 54.6937 81.8739 54.6937Z" fill="#22C55E"/>
</g>
<path d="M720.757 50.5L725.707 55.45C725.803 55.5422 725.879 55.6526 725.931 55.7746C725.984 55.8966 726.011 56.0278 726.012 56.1606C726.013 56.2934 725.988 56.4251 725.938 56.548C725.888 56.6708 725.813 56.7825 725.719 56.8764C725.626 56.9703 725.514 57.0445 725.391 57.0948C725.268 57.1451 725.136 57.1704 725.004 57.1692C724.871 57.1681 724.74 57.1405 724.618 57.0881C724.496 57.0357 724.385 56.9595 724.293 56.864L718.636 51.207C718.449 51.0195 718.343 50.7652 718.343 50.5C718.343 50.2348 718.449 49.9805 718.636 49.793L724.293 44.136C724.482 43.9538 724.734 43.853 724.996 43.8553C725.259 43.8576 725.509 43.9628 725.695 44.1482C725.88 44.3336 725.985 44.5844 725.988 44.8466C725.99 45.1088 725.889 45.3614 725.707 45.55L720.757 50.5Z" fill="#94A3B8"/>
<path d="M752.314 50.571L747.364 45.621C747.182 45.4324 747.081 45.1798 747.083 44.9176C747.086 44.6554 747.191 44.4046 747.376 44.2192C747.562 44.0338 747.812 43.9286 748.075 43.9263C748.337 43.924 748.589 44.0248 748.778 44.207L754.435 49.864C754.622 50.0515 754.728 50.3058 754.728 50.571C754.728 50.8362 754.622 51.0905 754.435 51.278L748.778 56.935C748.589 57.1172 748.337 57.2179 748.075 57.2157C747.812 57.2134 747.562 57.1082 747.376 56.9228C747.191 56.7374 747.086 56.4866 747.083 56.2244C747.081 55.9622 747.182 55.7096 747.364 55.521L752.314 50.571Z" fill="#475569"/>
<rect x="237.299" y="38" width="336.591" height="25" rx="5" fill="#F1F5F9"/>
<path d="M370.159 53.916V50.6523C370.159 50.4023 370.108 50.1855 370.007 50.002C369.909 49.8145 369.76 49.6699 369.561 49.5684C369.362 49.4668 369.116 49.416 368.823 49.416C368.549 49.416 368.309 49.4629 368.102 49.5566C367.899 49.6504 367.739 49.7734 367.622 49.9258C367.508 50.0781 367.452 50.2422 367.452 50.418H366.368C366.368 50.1914 366.426 49.9668 366.544 49.7441C366.661 49.5215 366.829 49.3203 367.048 49.1406C367.27 48.957 367.536 48.8125 367.844 48.707C368.157 48.5977 368.505 48.543 368.887 48.543C369.348 48.543 369.755 48.6211 370.106 48.7773C370.462 48.9336 370.739 49.1699 370.938 49.4863C371.141 49.7988 371.243 50.1914 371.243 50.6641V53.6172C371.243 53.8281 371.26 54.0527 371.296 54.291C371.335 54.5293 371.391 54.7344 371.465 54.9062V55H370.335C370.28 54.875 370.237 54.709 370.206 54.502C370.174 54.291 370.159 54.0957 370.159 53.916ZM370.346 51.1562L370.358 51.918H369.262C368.954 51.918 368.678 51.9434 368.436 51.9941C368.194 52.041 367.991 52.1133 367.827 52.2109C367.663 52.3086 367.538 52.4316 367.452 52.5801C367.366 52.7246 367.323 52.8945 367.323 53.0898C367.323 53.2891 367.368 53.4707 367.458 53.6348C367.548 53.7988 367.682 53.9297 367.862 54.0273C368.046 54.1211 368.27 54.168 368.536 54.168C368.868 54.168 369.161 54.0977 369.415 53.957C369.669 53.8164 369.87 53.6445 370.018 53.4414C370.171 53.2383 370.253 53.041 370.264 52.8496L370.727 53.3711C370.7 53.5352 370.626 53.7168 370.505 53.916C370.383 54.1152 370.221 54.3066 370.018 54.4902C369.819 54.6699 369.581 54.8203 369.303 54.9414C369.03 55.0586 368.721 55.1172 368.378 55.1172C367.948 55.1172 367.571 55.0332 367.247 54.8652C366.926 54.6973 366.676 54.4727 366.497 54.1914C366.321 53.9062 366.233 53.5879 366.233 53.2363C366.233 52.8965 366.299 52.5977 366.432 52.3398C366.565 52.0781 366.757 51.8613 367.007 51.6895C367.257 51.5137 367.557 51.3809 367.909 51.291C368.26 51.2012 368.653 51.1562 369.087 51.1562H370.346ZM374.032 49.8789V57.4375H372.942V48.6602H373.938L374.032 49.8789ZM378.303 51.7773V51.9004C378.303 52.3613 378.249 52.7891 378.139 53.1836C378.03 53.5742 377.87 53.9141 377.659 54.2031C377.452 54.4922 377.196 54.7168 376.891 54.877C376.587 55.0371 376.237 55.1172 375.842 55.1172C375.44 55.1172 375.085 55.0508 374.776 54.918C374.467 54.7852 374.206 54.5918 373.991 54.3379C373.776 54.084 373.604 53.7793 373.475 53.4238C373.35 53.0684 373.264 52.668 373.217 52.2227V51.5664C373.264 51.0977 373.352 50.6777 373.481 50.3066C373.61 49.9355 373.78 49.6191 373.991 49.3574C374.206 49.0918 374.465 48.8906 374.77 48.7539C375.075 48.6133 375.426 48.543 375.825 48.543C376.223 48.543 376.577 48.6211 376.885 48.7773C377.194 48.9297 377.454 49.1484 377.665 49.4336C377.876 49.7188 378.034 50.0605 378.139 50.459C378.249 50.8535 378.303 51.293 378.303 51.7773ZM377.214 51.9004V51.7773C377.214 51.4609 377.18 51.1641 377.114 50.8867C377.048 50.6055 376.944 50.3594 376.803 50.1484C376.667 49.9336 376.491 49.7656 376.276 49.6445C376.061 49.5195 375.805 49.457 375.508 49.457C375.235 49.457 374.997 49.5039 374.794 49.5977C374.594 49.6914 374.424 49.8184 374.284 49.9785C374.143 50.1348 374.028 50.3145 373.938 50.5176C373.852 50.7168 373.788 50.9238 373.745 51.1387V52.6562C373.823 52.9297 373.932 53.1875 374.073 53.4297C374.214 53.668 374.401 53.8613 374.635 54.0098C374.87 54.1543 375.165 54.2266 375.52 54.2266C375.813 54.2266 376.065 54.166 376.276 54.0449C376.491 53.9199 376.667 53.75 376.803 53.5352C376.944 53.3203 377.048 53.0742 377.114 52.7969C377.18 52.5156 377.214 52.2168 377.214 51.9004ZM380.77 49.8789V57.4375H379.68V48.6602H380.676L380.77 49.8789ZM385.042 51.7773V51.9004C385.042 52.3613 384.987 52.7891 384.878 53.1836C384.768 53.5742 384.608 53.9141 384.397 54.2031C384.19 54.4922 383.934 54.7168 383.63 54.877C383.325 55.0371 382.975 55.1172 382.581 55.1172C382.178 55.1172 381.823 55.0508 381.514 54.918C381.206 54.7852 380.944 54.5918 380.729 54.3379C380.514 54.084 380.342 53.7793 380.214 53.4238C380.089 53.0684 380.003 52.668 379.956 52.2227V51.5664C380.003 51.0977 380.09 50.6777 380.219 50.3066C380.348 49.9355 380.518 49.6191 380.729 49.3574C380.944 49.0918 381.204 48.8906 381.508 48.7539C381.813 48.6133 382.165 48.543 382.563 48.543C382.962 48.543 383.315 48.6211 383.624 48.7773C383.932 48.9297 384.192 49.1484 384.403 49.4336C384.614 49.7188 384.772 50.0605 384.878 50.459C384.987 50.8535 385.042 51.293 385.042 51.7773ZM383.952 51.9004V51.7773C383.952 51.4609 383.919 51.1641 383.852 50.8867C383.786 50.6055 383.682 50.3594 383.542 50.1484C383.405 49.9336 383.229 49.7656 383.014 49.6445C382.799 49.5195 382.544 49.457 382.247 49.457C381.973 49.457 381.735 49.5039 381.532 49.5977C381.333 49.6914 381.163 49.8184 381.022 49.9785C380.882 50.1348 380.766 50.3145 380.676 50.5176C380.59 50.7168 380.526 50.9238 380.483 51.1387V52.6562C380.561 52.9297 380.671 53.1875 380.811 53.4297C380.952 53.668 381.139 53.8613 381.374 54.0098C381.608 54.1543 381.903 54.2266 382.258 54.2266C382.551 54.2266 382.803 54.166 383.014 54.0449C383.229 53.9199 383.405 53.75 383.542 53.5352C383.682 53.3203 383.786 53.0742 383.852 52.7969C383.919 52.5156 383.952 52.2168 383.952 51.9004ZM386.442 54.4258C386.442 54.2422 386.499 54.0879 386.612 53.9629C386.729 53.834 386.897 53.7695 387.116 53.7695C387.335 53.7695 387.501 53.834 387.614 53.9629C387.731 54.0879 387.79 54.2422 387.79 54.4258C387.79 54.6055 387.731 54.7578 387.614 54.8828C387.501 55.0078 387.335 55.0703 387.116 55.0703C386.897 55.0703 386.729 55.0078 386.612 54.8828C386.499 54.7578 386.442 54.6055 386.442 54.4258ZM390.667 49.9199V55H389.577V48.6602H390.608L390.667 49.9199ZM390.444 51.5898L389.94 51.5723C389.944 51.1387 390.001 50.7383 390.11 50.3711C390.219 50 390.382 49.6777 390.596 49.4043C390.811 49.1309 391.079 48.9199 391.399 48.7715C391.719 48.6191 392.09 48.543 392.512 48.543C392.809 48.543 393.083 48.5859 393.333 48.6719C393.583 48.7539 393.799 48.8848 393.983 49.0645C394.167 49.2441 394.309 49.4746 394.411 49.7559C394.512 50.0371 394.563 50.377 394.563 50.7754V55H393.479V50.8281C393.479 50.4961 393.423 50.2305 393.309 50.0312C393.2 49.832 393.044 49.6875 392.84 49.5977C392.637 49.5039 392.399 49.457 392.126 49.457C391.805 49.457 391.538 49.5137 391.323 49.627C391.108 49.7402 390.936 49.8965 390.807 50.0957C390.678 50.2949 390.585 50.5234 390.526 50.7812C390.471 51.0352 390.444 51.3047 390.444 51.5898ZM394.551 50.9922L393.825 51.2148C393.829 50.8672 393.885 50.5332 393.995 50.2129C394.108 49.8926 394.27 49.6074 394.481 49.3574C394.696 49.1074 394.96 48.9102 395.272 48.7656C395.585 48.6172 395.942 48.543 396.344 48.543C396.684 48.543 396.985 48.5879 397.247 48.6777C397.512 48.7676 397.735 48.9062 397.915 49.0938C398.098 49.2773 398.237 49.5137 398.331 49.8027C398.424 50.0918 398.471 50.4355 398.471 50.834V55H397.382V50.8223C397.382 50.4668 397.325 50.1914 397.212 49.9961C397.102 49.7969 396.946 49.6582 396.743 49.5801C396.544 49.498 396.305 49.457 396.028 49.457C395.79 49.457 395.579 49.498 395.395 49.5801C395.212 49.6621 395.057 49.7754 394.932 49.9199C394.807 50.0605 394.712 50.2227 394.645 50.4062C394.583 50.5898 394.551 50.7852 394.551 50.9922ZM403.85 53.916V50.6523C403.85 50.4023 403.799 50.1855 403.698 50.002C403.6 49.8145 403.452 49.6699 403.253 49.5684C403.053 49.4668 402.807 49.416 402.514 49.416C402.241 49.416 402.001 49.4629 401.794 49.5566C401.59 49.6504 401.43 49.7734 401.313 49.9258C401.2 50.0781 401.143 50.2422 401.143 50.418H400.059C400.059 50.1914 400.118 49.9668 400.235 49.7441C400.352 49.5215 400.52 49.3203 400.739 49.1406C400.962 48.957 401.227 48.8125 401.536 48.707C401.848 48.5977 402.196 48.543 402.579 48.543C403.04 48.543 403.446 48.6211 403.798 48.7773C404.153 48.9336 404.43 49.1699 404.63 49.4863C404.833 49.7988 404.934 50.1914 404.934 50.6641V53.6172C404.934 53.8281 404.952 54.0527 404.987 54.291C405.026 54.5293 405.083 54.7344 405.157 54.9062V55H404.026C403.971 54.875 403.928 54.709 403.897 54.502C403.866 54.291 403.85 54.0957 403.85 53.916ZM404.038 51.1562L404.049 51.918H402.954C402.645 51.918 402.37 51.9434 402.128 51.9941C401.885 52.041 401.682 52.1133 401.518 52.2109C401.354 52.3086 401.229 52.4316 401.143 52.5801C401.057 52.7246 401.014 52.8945 401.014 53.0898C401.014 53.2891 401.059 53.4707 401.149 53.6348C401.239 53.7988 401.374 53.9297 401.553 54.0273C401.737 54.1211 401.962 54.168 402.227 54.168C402.559 54.168 402.852 54.0977 403.106 53.957C403.36 53.8164 403.561 53.6445 403.71 53.4414C403.862 53.2383 403.944 53.041 403.956 52.8496L404.419 53.3711C404.391 53.5352 404.317 53.7168 404.196 53.916C404.075 54.1152 403.913 54.3066 403.71 54.4902C403.51 54.6699 403.272 54.8203 402.995 54.9414C402.721 55.0586 402.413 55.1172 402.069 55.1172C401.639 55.1172 401.262 55.0332 400.938 54.8652C400.618 54.6973 400.368 54.4727 400.188 54.1914C400.012 53.9062 399.924 53.5879 399.924 53.2363C399.924 52.8965 399.991 52.5977 400.124 52.3398C400.257 52.0781 400.448 51.8613 400.698 51.6895C400.948 51.5137 401.249 51.3809 401.6 51.291C401.952 51.2012 402.344 51.1562 402.778 51.1562H404.038ZM410.747 48.6602H411.731V54.8652C411.731 55.4238 411.618 55.9004 411.391 56.2949C411.165 56.6895 410.848 56.9883 410.442 57.1914C410.04 57.3984 409.575 57.502 409.048 57.502C408.829 57.502 408.571 57.4668 408.274 57.3965C407.981 57.3301 407.692 57.2148 407.407 57.0508C407.126 56.8906 406.889 56.6738 406.698 56.4004L407.266 55.7559C407.532 56.0762 407.809 56.2988 408.098 56.4238C408.391 56.5488 408.68 56.6113 408.965 56.6113C409.309 56.6113 409.606 56.5469 409.856 56.418C410.106 56.2891 410.299 56.0977 410.436 55.8438C410.577 55.5938 410.647 55.2852 410.647 54.918V50.0547L410.747 48.6602ZM406.382 51.9004V51.7773C406.382 51.293 406.438 50.8535 406.551 50.459C406.669 50.0605 406.835 49.7188 407.049 49.4336C407.268 49.1484 407.532 48.9297 407.84 48.7773C408.149 48.6211 408.497 48.543 408.883 48.543C409.282 48.543 409.63 48.6133 409.926 48.7539C410.227 48.8906 410.481 49.0918 410.688 49.3574C410.899 49.6191 411.065 49.9355 411.186 50.3066C411.307 50.6777 411.391 51.0977 411.438 51.5664V52.1055C411.395 52.5703 411.311 52.9883 411.186 53.3594C411.065 53.7305 410.899 54.0469 410.688 54.3086C410.481 54.5703 410.227 54.7715 409.926 54.9121C409.626 55.0488 409.274 55.1172 408.872 55.1172C408.493 55.1172 408.149 55.0371 407.84 54.877C407.536 54.7168 407.274 54.4922 407.055 54.2031C406.837 53.9141 406.669 53.5742 406.551 53.1836C406.438 52.7891 406.382 52.3613 406.382 51.9004ZM407.465 51.7773V51.9004C407.465 52.2168 407.497 52.5137 407.559 52.791C407.626 53.0684 407.725 53.3125 407.858 53.5234C407.995 53.7344 408.169 53.9004 408.38 54.0215C408.59 54.1387 408.842 54.1973 409.135 54.1973C409.495 54.1973 409.792 54.1211 410.026 53.9688C410.26 53.8164 410.446 53.6152 410.583 53.3652C410.723 53.1152 410.833 52.8438 410.911 52.5508V51.1387C410.868 50.9238 410.801 50.7168 410.712 50.5176C410.626 50.3145 410.512 50.1348 410.372 49.9785C410.235 49.8184 410.065 49.6914 409.862 49.5977C409.659 49.5039 409.421 49.457 409.147 49.457C408.85 49.457 408.594 49.5195 408.38 49.6445C408.169 49.7656 407.995 49.9336 407.858 50.1484C407.725 50.3594 407.626 50.6055 407.559 50.8867C407.497 51.1641 407.465 51.4609 407.465 51.7773ZM414.462 50.0137V55H413.378V48.6602H414.403L414.462 50.0137ZM414.204 51.5898L413.753 51.5723C413.757 51.1387 413.821 50.7383 413.946 50.3711C414.071 50 414.247 49.6777 414.473 49.4043C414.7 49.1309 414.969 48.9199 415.282 48.7715C415.598 48.6191 415.948 48.543 416.331 48.543C416.643 48.543 416.924 48.5859 417.174 48.6719C417.424 48.7539 417.637 48.8867 417.813 49.0703C417.993 49.2539 418.13 49.4922 418.223 49.7852C418.317 50.0742 418.364 50.4277 418.364 50.8457V55H417.274V50.834C417.274 50.502 417.225 50.2363 417.128 50.0371C417.03 49.834 416.887 49.6875 416.7 49.5977C416.512 49.5039 416.282 49.457 416.008 49.457C415.739 49.457 415.493 49.5137 415.27 49.627C415.051 49.7402 414.862 49.8965 414.702 50.0957C414.546 50.2949 414.423 50.5234 414.333 50.7812C414.247 51.0352 414.204 51.3047 414.204 51.5898ZM421.188 48.6602V55H420.098V48.6602H421.188ZM420.016 46.9785C420.016 46.8027 420.069 46.6543 420.174 46.5332C420.284 46.4121 420.444 46.3516 420.655 46.3516C420.862 46.3516 421.02 46.4121 421.13 46.5332C421.243 46.6543 421.299 46.8027 421.299 46.9785C421.299 47.1465 421.243 47.291 421.13 47.4121C421.02 47.5293 420.862 47.5879 420.655 47.5879C420.444 47.5879 420.284 47.5293 420.174 47.4121C420.069 47.291 420.016 47.1465 420.016 46.9785ZM424.376 55H423.292V48.1094C423.292 47.6289 423.385 47.2227 423.573 46.8906C423.76 46.5586 424.028 46.3066 424.376 46.1348C424.723 45.9629 425.135 45.877 425.612 45.877C425.893 45.877 426.169 45.9121 426.438 45.9824C426.708 46.0488 426.985 46.1328 427.27 46.2344L427.089 47.1484C426.909 47.0781 426.7 47.0117 426.462 46.9492C426.227 46.8828 425.969 46.8496 425.688 46.8496C425.223 46.8496 424.887 46.9551 424.68 47.166C424.477 47.373 424.376 47.6875 424.376 48.1094V55ZM425.671 48.6602V49.4922H422.29V48.6602H425.671ZM427.803 48.6602V55H426.719V48.6602H427.803ZM429.602 54.4258C429.602 54.2422 429.659 54.0879 429.772 53.9629C429.889 53.834 430.057 53.7695 430.276 53.7695C430.495 53.7695 430.661 53.834 430.774 53.9629C430.891 54.0879 430.95 54.2422 430.95 54.4258C430.95 54.6055 430.891 54.7578 430.774 54.8828C430.661 55.0078 430.495 55.0703 430.276 55.0703C430.057 55.0703 429.889 55.0078 429.772 54.8828C429.659 54.7578 429.602 54.6055 429.602 54.4258ZM435.286 54.2266C435.544 54.2266 435.782 54.1738 436.001 54.0684C436.219 53.9629 436.399 53.8184 436.54 53.6348C436.68 53.4473 436.76 53.2344 436.78 52.9961H437.811C437.792 53.3711 437.665 53.7207 437.43 54.0449C437.2 54.3652 436.897 54.625 436.522 54.8242C436.147 55.0195 435.735 55.1172 435.286 55.1172C434.809 55.1172 434.393 55.0332 434.038 54.8652C433.686 54.6973 433.393 54.4668 433.159 54.1738C432.928 53.8809 432.755 53.5449 432.637 53.166C432.524 52.7832 432.467 52.3789 432.467 51.9531V51.707C432.467 51.2812 432.524 50.8789 432.637 50.5C432.755 50.1172 432.928 49.7793 433.159 49.4863C433.393 49.1934 433.686 48.9629 434.038 48.7949C434.393 48.627 434.809 48.543 435.286 48.543C435.782 48.543 436.215 48.6445 436.587 48.8477C436.958 49.0469 437.249 49.3203 437.46 49.668C437.674 50.0117 437.792 50.4023 437.811 50.8398H436.78C436.76 50.5781 436.686 50.3418 436.557 50.1309C436.432 49.9199 436.26 49.752 436.042 49.627C435.827 49.498 435.575 49.4336 435.286 49.4336C434.954 49.4336 434.674 49.5 434.448 49.6328C434.225 49.7617 434.048 49.9375 433.915 50.1602C433.786 50.3789 433.692 50.623 433.633 50.8926C433.579 51.1582 433.551 51.4297 433.551 51.707V51.9531C433.551 52.2305 433.579 52.5039 433.633 52.7734C433.688 53.043 433.78 53.2871 433.909 53.5059C434.042 53.7246 434.219 53.9004 434.442 54.0332C434.669 54.1621 434.95 54.2266 435.286 54.2266ZM438.743 51.9004V51.7656C438.743 51.3086 438.809 50.8848 438.942 50.4941C439.075 50.0996 439.266 49.7578 439.516 49.4688C439.766 49.1758 440.069 48.9492 440.424 48.7891C440.78 48.625 441.178 48.543 441.62 48.543C442.065 48.543 442.465 48.625 442.821 48.7891C443.18 48.9492 443.485 49.1758 443.735 49.4688C443.989 49.7578 444.182 50.0996 444.315 50.4941C444.448 50.8848 444.514 51.3086 444.514 51.7656V51.9004C444.514 52.3574 444.448 52.7812 444.315 53.1719C444.182 53.5625 443.989 53.9043 443.735 54.1973C443.485 54.4863 443.182 54.7129 442.827 54.877C442.475 55.0371 442.077 55.1172 441.632 55.1172C441.186 55.1172 440.786 55.0371 440.43 54.877C440.075 54.7129 439.77 54.4863 439.516 54.1973C439.266 53.9043 439.075 53.5625 438.942 53.1719C438.809 52.7812 438.743 52.3574 438.743 51.9004ZM439.827 51.7656V51.9004C439.827 52.2168 439.864 52.5156 439.938 52.7969C440.012 53.0742 440.124 53.3203 440.272 53.5352C440.424 53.75 440.614 53.9199 440.84 54.0449C441.067 54.166 441.331 54.2266 441.632 54.2266C441.928 54.2266 442.188 54.166 442.411 54.0449C442.637 53.9199 442.825 53.75 442.973 53.5352C443.122 53.3203 443.233 53.0742 443.307 52.7969C443.385 52.5156 443.424 52.2168 443.424 51.9004V51.7656C443.424 51.4531 443.385 51.1582 443.307 50.8809C443.233 50.5996 443.12 50.3516 442.967 50.1367C442.819 49.918 442.632 49.7461 442.405 49.6211C442.182 49.4961 441.921 49.4336 441.62 49.4336C441.323 49.4336 441.061 49.4961 440.835 49.6211C440.612 49.7461 440.424 49.918 440.272 50.1367C440.124 50.3516 440.012 50.5996 439.938 50.8809C439.864 51.1582 439.827 51.4531 439.827 51.7656Z" fill="#94A3B8"/>
</g>
<rect x="31.3739" y="30.5" width="747.126" height="547.626" rx="19.5" stroke="#CBD5E1"/>
</g>
<defs>
<filter id="filter0_d_1_5112" x="0.873932" y="0" width="808.126" height="608.626" filterUnits="userSpaceOnUse" color-interpolation-filters="sRGB">
<feFlood flood-opacity="0" result="BackgroundImageFix"/>
<feColorMatrix in="SourceAlpha" type="matrix" values="0 0 0 0 0 0 0 0 0 0 0 0 0 0 0 0 0 0 127 0" result="hardAlpha"/>
<feOffset/>
<feGaussianBlur stdDeviation="15"/>
<feComposite in2="hardAlpha" operator="out"/>
<feColorMatrix type="matrix" values="0 0 0 0 0 0 0 0 0 0 0 0 0 0 0 0 0 0 0.07 0"/>
<feBlend mode="normal" in2="BackgroundImageFix" result="effect1_dropShadow_1_5112"/>
<feBlend mode="normal" in="SourceGraphic" in2="effect1_dropShadow_1_5112" result="shape"/>
</filter>
<clipPath id="clip0_1_5112">
<rect x="30.8739" y="30" width="748.126" height="548.626" rx="20" fill="white"/>
</clipPath>
<clipPath id="clip1_1_5112">
<rect width="10" height="10" fill="white" transform="translate(46.8739 45.5)"/>
</clipPath>
<clipPath id="clip2_1_5112">
<rect width="10" height="10" fill="white" transform="translate(61.8739 45.5)"/>
</clipPath>
<clipPath id="clip3_1_5112">
<rect width="10" height="10" fill="white" transform="translate(76.8739 45.5)"/>
</clipPath>
</defs>
</svg>
