<svg width="778" height="586" viewBox="0 0 778 586" fill="none" xmlns="http://www.w3.org/2000/svg">
<g filter="url(#filter0_d_25_3620)">
<g clip-path="url(#clip0_25_3620)">
<rect x="30.8739" y="30" width="545.078" height="399.724" rx="20" fill="white"/>
<g clip-path="url(#clip1_25_3620)">
<path d="M51.8739 54.6937C49.5727 54.6937 47.7073 52.8283 47.7073 50.5271C47.7073 48.2258 49.5727 46.3604 51.8739 46.3604C54.1752 46.3604 56.0406 48.2258 56.0406 50.5271C56.0406 52.8283 54.1752 54.6937 51.8739 54.6937Z" fill="#E11D48"/>
</g>
<g clip-path="url(#clip2_25_3620)">
<path d="M66.8739 54.6937C64.5727 54.6937 62.7073 52.8283 62.7073 50.5271C62.7073 48.2258 64.5727 46.3604 66.8739 46.3604C69.1752 46.3604 71.0406 48.2258 71.0406 50.5271C71.0406 52.8283 69.1752 54.6937 66.8739 54.6937Z" fill="#FBBF24"/>
</g>
<g clip-path="url(#clip3_25_3620)">
<path d="M81.8739 54.6937C79.5727 54.6937 77.7073 52.8283 77.7073 50.5271C77.7073 48.2258 79.5727 46.3604 81.8739 46.3604C84.1752 46.3604 86.0406 48.2258 86.0406 50.5271C86.0406 52.8283 84.1752 54.6937 81.8739 54.6937Z" fill="#22C55E"/>
</g>
<path d="M517.709 50.5L522.659 55.45C522.754 55.5422 522.83 55.6526 522.883 55.7746C522.935 55.8966 522.963 56.0278 522.964 56.1606C522.965 56.2934 522.94 56.4251 522.89 56.548C522.839 56.6708 522.765 56.7825 522.671 56.8764C522.577 56.9703 522.466 57.0445 522.343 57.0948C522.22 57.1451 522.088 57.1704 521.955 57.1692C521.823 57.1681 521.691 57.1405 521.569 57.0881C521.447 57.0357 521.337 56.9595 521.245 56.864L515.588 51.207C515.4 51.0195 515.295 50.7652 515.295 50.5C515.295 50.2348 515.4 49.9805 515.588 49.793L521.245 44.136C521.433 43.9538 521.686 43.853 521.948 43.8553C522.21 43.8576 522.461 43.9628 522.647 44.1482C522.832 44.3336 522.937 44.5844 522.939 44.8466C522.942 45.1088 522.841 45.3614 522.659 45.55L517.709 50.5Z" fill="#94A3B8"/>
<path d="M549.266 50.571L544.316 45.621C544.134 45.4324 544.033 45.1798 544.035 44.9176C544.037 44.6554 544.142 44.4046 544.328 44.2192C544.513 44.0338 544.764 43.9286 545.026 43.9263C545.288 43.924 545.541 44.0248 545.73 44.207L551.387 49.864C551.574 50.0515 551.679 50.3058 551.679 50.571C551.679 50.8362 551.574 51.0905 551.387 51.278L545.73 56.935C545.541 57.1172 545.288 57.2179 545.026 57.2157C544.764 57.2134 544.513 57.1082 544.328 56.9228C544.142 56.7374 544.037 56.4866 544.035 56.2244C544.033 55.9622 544.134 55.7096 544.316 55.521L549.266 50.571V50.571Z" fill="#475569"/>
<rect x="181.273" y="38" width="245.237" height="25" rx="5" fill="#F1F5F9"/>
<path d="M268.456 53.916V50.6523C268.456 50.4023 268.405 50.1855 268.304 50.002C268.206 49.8145 268.058 49.6699 267.859 49.5684C267.659 49.4668 267.413 49.416 267.12 49.416C266.847 49.416 266.607 49.4629 266.4 49.5566C266.196 49.6504 266.036 49.7734 265.919 49.9258C265.806 50.0781 265.749 50.2422 265.749 50.418H264.665C264.665 50.1914 264.724 49.9668 264.841 49.7441C264.958 49.5215 265.126 49.3203 265.345 49.1406C265.568 48.957 265.833 48.8125 266.142 48.707C266.454 48.5977 266.802 48.543 267.185 48.543C267.646 48.543 268.052 48.6211 268.404 48.7773C268.759 48.9336 269.036 49.1699 269.236 49.4863C269.439 49.7988 269.54 50.1914 269.54 50.6641V53.6172C269.54 53.8281 269.558 54.0527 269.593 54.291C269.632 54.5293 269.689 54.7344 269.763 54.9062V55H268.632C268.577 54.875 268.534 54.709 268.503 54.502C268.472 54.291 268.456 54.0957 268.456 53.916ZM268.644 51.1562L268.655 51.918H267.56C267.251 51.918 266.976 51.9434 266.734 51.9941C266.491 52.041 266.288 52.1133 266.124 52.2109C265.96 52.3086 265.835 52.4316 265.749 52.5801C265.663 52.7246 265.62 52.8945 265.62 53.0898C265.62 53.2891 265.665 53.4707 265.755 53.6348C265.845 53.7988 265.98 53.9297 266.159 54.0273C266.343 54.1211 266.568 54.168 266.833 54.168C267.165 54.168 267.458 54.0977 267.712 53.957C267.966 53.8164 268.167 53.6445 268.316 53.4414C268.468 53.2383 268.55 53.041 268.562 52.8496L269.025 53.3711C268.997 53.5352 268.923 53.7168 268.802 53.916C268.681 54.1152 268.519 54.3066 268.316 54.4902C268.116 54.6699 267.878 54.8203 267.601 54.9414C267.327 55.0586 267.019 55.1172 266.675 55.1172C266.245 55.1172 265.868 55.0332 265.544 54.8652C265.224 54.6973 264.974 54.4727 264.794 54.1914C264.618 53.9062 264.53 53.5879 264.53 53.2363C264.53 52.8965 264.597 52.5977 264.73 52.3398C264.863 52.0781 265.054 51.8613 265.304 51.6895C265.554 51.5137 265.855 51.3809 266.206 51.291C266.558 51.2012 266.95 51.1562 267.384 51.1562H268.644ZM272.329 49.8789V57.4375H271.239V48.6602H272.236L272.329 49.8789ZM276.601 51.7773V51.9004C276.601 52.3613 276.546 52.7891 276.437 53.1836C276.327 53.5742 276.167 53.9141 275.956 54.2031C275.749 54.4922 275.493 54.7168 275.189 54.877C274.884 55.0371 274.534 55.1172 274.14 55.1172C273.738 55.1172 273.382 55.0508 273.073 54.918C272.765 54.7852 272.503 54.5918 272.288 54.3379C272.073 54.084 271.902 53.7793 271.773 53.4238C271.648 53.0684 271.562 52.668 271.515 52.2227V51.5664C271.562 51.0977 271.65 50.6777 271.779 50.3066C271.907 49.9355 272.077 49.6191 272.288 49.3574C272.503 49.0918 272.763 48.8906 273.068 48.7539C273.372 48.6133 273.724 48.543 274.122 48.543C274.521 48.543 274.874 48.6211 275.183 48.7773C275.491 48.9297 275.751 49.1484 275.962 49.4336C276.173 49.7188 276.331 50.0605 276.437 50.459C276.546 50.8535 276.601 51.293 276.601 51.7773ZM275.511 51.9004V51.7773C275.511 51.4609 275.478 51.1641 275.411 50.8867C275.345 50.6055 275.241 50.3594 275.101 50.1484C274.964 49.9336 274.788 49.7656 274.573 49.6445C274.359 49.5195 274.103 49.457 273.806 49.457C273.532 49.457 273.294 49.5039 273.091 49.5977C272.892 49.6914 272.722 49.8184 272.581 49.9785C272.441 50.1348 272.325 50.3145 272.236 50.5176C272.15 50.7168 272.085 50.9238 272.042 51.1387V52.6562C272.12 52.9297 272.23 53.1875 272.37 53.4297C272.511 53.668 272.698 53.8613 272.933 54.0098C273.167 54.1543 273.462 54.2266 273.818 54.2266C274.111 54.2266 274.363 54.166 274.573 54.0449C274.788 53.9199 274.964 53.75 275.101 53.5352C275.241 53.3203 275.345 53.0742 275.411 52.7969C275.478 52.5156 275.511 52.2168 275.511 51.9004ZM279.068 49.8789V57.4375H277.978V48.6602H278.974L279.068 49.8789ZM283.339 51.7773V51.9004C283.339 52.3613 283.284 52.7891 283.175 53.1836C283.066 53.5742 282.905 53.9141 282.695 54.2031C282.488 54.4922 282.232 54.7168 281.927 54.877C281.622 55.0371 281.273 55.1172 280.878 55.1172C280.476 55.1172 280.12 55.0508 279.812 54.918C279.503 54.7852 279.241 54.5918 279.027 54.3379C278.812 54.084 278.64 53.7793 278.511 53.4238C278.386 53.0684 278.3 52.668 278.253 52.2227V51.5664C278.3 51.0977 278.388 50.6777 278.517 50.3066C278.646 49.9355 278.816 49.6191 279.027 49.3574C279.241 49.0918 279.501 48.8906 279.806 48.7539C280.111 48.6133 280.462 48.543 280.861 48.543C281.259 48.543 281.613 48.6211 281.921 48.7773C282.23 48.9297 282.489 49.1484 282.7 49.4336C282.911 49.7188 283.07 50.0605 283.175 50.459C283.284 50.8535 283.339 51.293 283.339 51.7773ZM282.249 51.9004V51.7773C282.249 51.4609 282.216 51.1641 282.15 50.8867C282.083 50.6055 281.98 50.3594 281.839 50.1484C281.702 49.9336 281.527 49.7656 281.312 49.6445C281.097 49.5195 280.841 49.457 280.544 49.457C280.271 49.457 280.032 49.5039 279.829 49.5977C279.63 49.6914 279.46 49.8184 279.32 49.9785C279.179 50.1348 279.064 50.3145 278.974 50.5176C278.888 50.7168 278.823 50.9238 278.78 51.1387V52.6562C278.859 52.9297 278.968 53.1875 279.109 53.4297C279.249 53.668 279.437 53.8613 279.671 54.0098C279.905 54.1543 280.2 54.2266 280.556 54.2266C280.849 54.2266 281.101 54.166 281.312 54.0449C281.527 53.9199 281.702 53.75 281.839 53.5352C281.98 53.3203 282.083 53.0742 282.15 52.7969C282.216 52.5156 282.249 52.2168 282.249 51.9004ZM284.739 54.4258C284.739 54.2422 284.796 54.0879 284.909 53.9629C285.027 53.834 285.195 53.7695 285.413 53.7695C285.632 53.7695 285.798 53.834 285.911 53.9629C286.029 54.0879 286.087 54.2422 286.087 54.4258C286.087 54.6055 286.029 54.7578 285.911 54.8828C285.798 55.0078 285.632 55.0703 285.413 55.0703C285.195 55.0703 285.027 55.0078 284.909 54.8828C284.796 54.7578 284.739 54.6055 284.739 54.4258ZM288.964 49.9199V55H287.874V48.6602H288.905L288.964 49.9199ZM288.741 51.5898L288.238 51.5723C288.241 51.1387 288.298 50.7383 288.407 50.3711C288.517 50 288.679 49.6777 288.894 49.4043C289.109 49.1309 289.376 48.9199 289.696 48.7715C290.017 48.6191 290.388 48.543 290.81 48.543C291.107 48.543 291.38 48.5859 291.63 48.6719C291.88 48.7539 292.097 48.8848 292.28 49.0645C292.464 49.2441 292.607 49.4746 292.708 49.7559C292.81 50.0371 292.861 50.377 292.861 50.7754V55H291.777V50.8281C291.777 50.4961 291.72 50.2305 291.607 50.0312C291.497 49.832 291.341 49.6875 291.138 49.5977C290.935 49.5039 290.696 49.457 290.423 49.457C290.103 49.457 289.835 49.5137 289.62 49.627C289.405 49.7402 289.234 49.8965 289.105 50.0957C288.976 50.2949 288.882 50.5234 288.823 50.7812C288.769 51.0352 288.741 51.3047 288.741 51.5898ZM292.849 50.9922L292.122 51.2148C292.126 50.8672 292.183 50.5332 292.292 50.2129C292.405 49.8926 292.568 49.6074 292.779 49.3574C292.993 49.1074 293.257 48.9102 293.57 48.7656C293.882 48.6172 294.239 48.543 294.642 48.543C294.982 48.543 295.282 48.5879 295.544 48.6777C295.81 48.7676 296.032 48.9062 296.212 49.0938C296.396 49.2773 296.534 49.5137 296.628 49.8027C296.722 50.0918 296.769 50.4355 296.769 50.834V55H295.679V50.8223C295.679 50.4668 295.622 50.1914 295.509 49.9961C295.4 49.7969 295.243 49.6582 295.04 49.5801C294.841 49.498 294.603 49.457 294.325 49.457C294.087 49.457 293.876 49.498 293.693 49.5801C293.509 49.6621 293.355 49.7754 293.23 49.9199C293.105 50.0605 293.009 50.2227 292.943 50.4062C292.88 50.5898 292.849 50.7852 292.849 50.9922ZM302.148 53.916V50.6523C302.148 50.4023 302.097 50.1855 301.995 50.002C301.898 49.8145 301.749 49.6699 301.55 49.5684C301.351 49.4668 301.105 49.416 300.812 49.416C300.538 49.416 300.298 49.4629 300.091 49.5566C299.888 49.6504 299.728 49.7734 299.611 49.9258C299.497 50.0781 299.441 50.2422 299.441 50.418H298.357C298.357 50.1914 298.415 49.9668 298.532 49.7441C298.65 49.5215 298.818 49.3203 299.036 49.1406C299.259 48.957 299.525 48.8125 299.833 48.707C300.146 48.5977 300.493 48.543 300.876 48.543C301.337 48.543 301.743 48.6211 302.095 48.7773C302.45 48.9336 302.728 49.1699 302.927 49.4863C303.13 49.7988 303.232 50.1914 303.232 50.6641V53.6172C303.232 53.8281 303.249 54.0527 303.284 54.291C303.323 54.5293 303.38 54.7344 303.454 54.9062V55H302.323C302.269 54.875 302.226 54.709 302.195 54.502C302.163 54.291 302.148 54.0957 302.148 53.916ZM302.335 51.1562L302.347 51.918H301.251C300.943 51.918 300.667 51.9434 300.425 51.9941C300.183 52.041 299.98 52.1133 299.816 52.2109C299.652 52.3086 299.527 52.4316 299.441 52.5801C299.355 52.7246 299.312 52.8945 299.312 53.0898C299.312 53.2891 299.357 53.4707 299.446 53.6348C299.536 53.7988 299.671 53.9297 299.851 54.0273C300.034 54.1211 300.259 54.168 300.525 54.168C300.857 54.168 301.15 54.0977 301.404 53.957C301.657 53.8164 301.859 53.6445 302.007 53.4414C302.159 53.2383 302.241 53.041 302.253 52.8496L302.716 53.3711C302.689 53.5352 302.614 53.7168 302.493 53.916C302.372 54.1152 302.21 54.3066 302.007 54.4902C301.808 54.6699 301.57 54.8203 301.292 54.9414C301.019 55.0586 300.71 55.1172 300.366 55.1172C299.937 55.1172 299.56 55.0332 299.236 54.8652C298.915 54.6973 298.665 54.4727 298.486 54.1914C298.31 53.9062 298.222 53.5879 298.222 53.2363C298.222 52.8965 298.288 52.5977 298.421 52.3398C298.554 52.0781 298.745 51.8613 298.995 51.6895C299.245 51.5137 299.546 51.3809 299.898 51.291C300.249 51.2012 300.642 51.1562 301.075 51.1562H302.335ZM309.044 48.6602H310.029V54.8652C310.029 55.4238 309.915 55.9004 309.689 56.2949C309.462 56.6895 309.146 56.9883 308.739 57.1914C308.337 57.3984 307.872 57.502 307.345 57.502C307.126 57.502 306.868 57.4668 306.571 57.3965C306.279 57.3301 305.989 57.2148 305.704 57.0508C305.423 56.8906 305.187 56.6738 304.995 56.4004L305.564 55.7559C305.829 56.0762 306.107 56.2988 306.396 56.4238C306.689 56.5488 306.978 56.6113 307.263 56.6113C307.607 56.6113 307.904 56.5469 308.154 56.418C308.404 56.2891 308.597 56.0977 308.734 55.8438C308.874 55.5938 308.945 55.2852 308.945 54.918V50.0547L309.044 48.6602ZM304.679 51.9004V51.7773C304.679 51.293 304.736 50.8535 304.849 50.459C304.966 50.0605 305.132 49.7188 305.347 49.4336C305.566 49.1484 305.829 48.9297 306.138 48.7773C306.446 48.6211 306.794 48.543 307.181 48.543C307.579 48.543 307.927 48.6133 308.224 48.7539C308.525 48.8906 308.779 49.0918 308.986 49.3574C309.196 49.6191 309.363 49.9355 309.484 50.3066C309.605 50.6777 309.689 51.0977 309.736 51.5664V52.1055C309.693 52.5703 309.609 52.9883 309.484 53.3594C309.363 53.7305 309.196 54.0469 308.986 54.3086C308.779 54.5703 308.525 54.7715 308.224 54.9121C307.923 55.0488 307.571 55.1172 307.169 55.1172C306.79 55.1172 306.446 55.0371 306.138 54.877C305.833 54.7168 305.571 54.4922 305.353 54.2031C305.134 53.9141 304.966 53.5742 304.849 53.1836C304.736 52.7891 304.679 52.3613 304.679 51.9004ZM305.763 51.7773V51.9004C305.763 52.2168 305.794 52.5137 305.857 52.791C305.923 53.0684 306.023 53.3125 306.155 53.5234C306.292 53.7344 306.466 53.9004 306.677 54.0215C306.888 54.1387 307.14 54.1973 307.433 54.1973C307.792 54.1973 308.089 54.1211 308.323 53.9688C308.558 53.8164 308.743 53.6152 308.88 53.3652C309.021 53.1152 309.13 52.8438 309.208 52.5508V51.1387C309.165 50.9238 309.099 50.7168 309.009 50.5176C308.923 50.3145 308.81 50.1348 308.669 49.9785C308.532 49.8184 308.363 49.6914 308.159 49.5977C307.956 49.5039 307.718 49.457 307.445 49.457C307.148 49.457 306.892 49.5195 306.677 49.6445C306.466 49.7656 306.292 49.9336 306.155 50.1484C306.023 50.3594 305.923 50.6055 305.857 50.8867C305.794 51.1641 305.763 51.4609 305.763 51.7773ZM312.759 50.0137V55H311.675V48.6602H312.7L312.759 50.0137ZM312.501 51.5898L312.05 51.5723C312.054 51.1387 312.118 50.7383 312.243 50.3711C312.368 50 312.544 49.6777 312.771 49.4043C312.997 49.1309 313.267 48.9199 313.579 48.7715C313.896 48.6191 314.245 48.543 314.628 48.543C314.941 48.543 315.222 48.5859 315.472 48.6719C315.722 48.7539 315.935 48.8867 316.111 49.0703C316.29 49.2539 316.427 49.4922 316.521 49.7852C316.614 50.0742 316.661 50.4277 316.661 50.8457V55H315.571V50.834C315.571 50.502 315.523 50.2363 315.425 50.0371C315.327 49.834 315.185 49.6875 314.997 49.5977C314.81 49.5039 314.579 49.457 314.306 49.457C314.036 49.457 313.79 49.5137 313.568 49.627C313.349 49.7402 313.159 49.8965 312.999 50.0957C312.843 50.2949 312.72 50.5234 312.63 50.7812C312.544 51.0352 312.501 51.3047 312.501 51.5898ZM319.486 48.6602V55H318.396V48.6602H319.486ZM318.314 46.9785C318.314 46.8027 318.366 46.6543 318.472 46.5332C318.581 46.4121 318.741 46.3516 318.952 46.3516C319.159 46.3516 319.318 46.4121 319.427 46.5332C319.54 46.6543 319.597 46.8027 319.597 46.9785C319.597 47.1465 319.54 47.291 319.427 47.4121C319.318 47.5293 319.159 47.5879 318.952 47.5879C318.741 47.5879 318.581 47.5293 318.472 47.4121C318.366 47.291 318.314 47.1465 318.314 46.9785ZM322.673 55H321.589V48.1094C321.589 47.6289 321.683 47.2227 321.87 46.8906C322.058 46.5586 322.325 46.3066 322.673 46.1348C323.021 45.9629 323.433 45.877 323.909 45.877C324.191 45.877 324.466 45.9121 324.736 45.9824C325.005 46.0488 325.282 46.1328 325.568 46.2344L325.386 47.1484C325.206 47.0781 324.997 47.0117 324.759 46.9492C324.525 46.8828 324.267 46.8496 323.986 46.8496C323.521 46.8496 323.185 46.9551 322.978 47.166C322.775 47.373 322.673 47.6875 322.673 48.1094V55ZM323.968 48.6602V49.4922H320.587V48.6602H323.968ZM326.101 48.6602V55H325.017V48.6602H326.101ZM327.9 54.4258C327.9 54.2422 327.956 54.0879 328.07 53.9629C328.187 53.834 328.355 53.7695 328.573 53.7695C328.792 53.7695 328.958 53.834 329.071 53.9629C329.189 54.0879 329.247 54.2422 329.247 54.4258C329.247 54.6055 329.189 54.7578 329.071 54.8828C328.958 55.0078 328.792 55.0703 328.573 55.0703C328.355 55.0703 328.187 55.0078 328.07 54.8828C327.956 54.7578 327.9 54.6055 327.9 54.4258ZM333.583 54.2266C333.841 54.2266 334.079 54.1738 334.298 54.0684C334.517 53.9629 334.696 53.8184 334.837 53.6348C334.978 53.4473 335.058 53.2344 335.077 52.9961H336.109C336.089 53.3711 335.962 53.7207 335.728 54.0449C335.497 54.3652 335.195 54.625 334.82 54.8242C334.445 55.0195 334.032 55.1172 333.583 55.1172C333.107 55.1172 332.691 55.0332 332.335 54.8652C331.984 54.6973 331.691 54.4668 331.456 54.1738C331.226 53.8809 331.052 53.5449 330.935 53.166C330.821 52.7832 330.765 52.3789 330.765 51.9531V51.707C330.765 51.2812 330.821 50.8789 330.935 50.5C331.052 50.1172 331.226 49.7793 331.456 49.4863C331.691 49.1934 331.984 48.9629 332.335 48.7949C332.691 48.627 333.107 48.543 333.583 48.543C334.079 48.543 334.513 48.6445 334.884 48.8477C335.255 49.0469 335.546 49.3203 335.757 49.668C335.972 50.0117 336.089 50.4023 336.109 50.8398H335.077C335.058 50.5781 334.984 50.3418 334.855 50.1309C334.73 49.9199 334.558 49.752 334.339 49.627C334.124 49.498 333.872 49.4336 333.583 49.4336C333.251 49.4336 332.972 49.5 332.745 49.6328C332.523 49.7617 332.345 49.9375 332.212 50.1602C332.083 50.3789 331.989 50.623 331.931 50.8926C331.876 51.1582 331.849 51.4297 331.849 51.707V51.9531C331.849 52.2305 331.876 52.5039 331.931 52.7734C331.986 53.043 332.077 53.2871 332.206 53.5059C332.339 53.7246 332.517 53.9004 332.739 54.0332C332.966 54.1621 333.247 54.2266 333.583 54.2266ZM337.04 51.9004V51.7656C337.04 51.3086 337.107 50.8848 337.239 50.4941C337.372 50.0996 337.564 49.7578 337.814 49.4688C338.064 49.1758 338.366 48.9492 338.722 48.7891C339.077 48.625 339.476 48.543 339.917 48.543C340.363 48.543 340.763 48.625 341.118 48.7891C341.478 48.9492 341.782 49.1758 342.032 49.4688C342.286 49.7578 342.48 50.0996 342.613 50.4941C342.745 50.8848 342.812 51.3086 342.812 51.7656V51.9004C342.812 52.3574 342.745 52.7812 342.613 53.1719C342.48 53.5625 342.286 53.9043 342.032 54.1973C341.782 54.4863 341.48 54.7129 341.124 54.877C340.773 55.0371 340.374 55.1172 339.929 55.1172C339.484 55.1172 339.083 55.0371 338.728 54.877C338.372 54.7129 338.068 54.4863 337.814 54.1973C337.564 53.9043 337.372 53.5625 337.239 53.1719C337.107 52.7812 337.04 52.3574 337.04 51.9004ZM338.124 51.7656V51.9004C338.124 52.2168 338.161 52.5156 338.236 52.7969C338.31 53.0742 338.421 53.3203 338.57 53.5352C338.722 53.75 338.911 53.9199 339.138 54.0449C339.364 54.166 339.628 54.2266 339.929 54.2266C340.226 54.2266 340.486 54.166 340.708 54.0449C340.935 53.9199 341.122 53.75 341.271 53.5352C341.419 53.3203 341.53 53.0742 341.605 52.7969C341.683 52.5156 341.722 52.2168 341.722 51.9004V51.7656C341.722 51.4531 341.683 51.1582 341.605 50.8809C341.53 50.5996 341.417 50.3516 341.265 50.1367C341.116 49.918 340.929 49.7461 340.702 49.6211C340.48 49.4961 340.218 49.4336 339.917 49.4336C339.62 49.4336 339.359 49.4961 339.132 49.6211C338.909 49.7461 338.722 49.918 338.57 50.1367C338.421 50.3516 338.31 50.5996 338.236 50.8809C338.161 51.1582 338.124 51.4531 338.124 51.7656Z" fill="#94A3B8"/>
</g>
<rect x="31.3739" y="30.5" width="544.078" height="398.724" rx="19.5" stroke="#CBD5E1"/>
</g>
<g filter="url(#filter1_d_25_3620)">
<g clip-path="url(#clip4_25_3620)">
<rect x="403.344" y="302.539" width="344.307" height="253.461" rx="20" fill="white"/>
<g clip-path="url(#clip5_25_3620)">
<path d="M424.344 327.233C422.042 327.233 420.177 325.367 420.177 323.066C420.177 320.765 422.042 318.899 424.344 318.899C426.645 318.899 428.51 320.765 428.51 323.066C428.51 325.367 426.645 327.233 424.344 327.233Z" fill="#E11D48"/>
</g>
<g clip-path="url(#clip6_25_3620)">
<path d="M439.344 327.233C437.042 327.233 435.177 325.367 435.177 323.066C435.177 320.765 437.042 318.899 439.344 318.899C441.645 318.899 443.51 320.765 443.51 323.066C443.51 325.367 441.645 327.233 439.344 327.233Z" fill="#FBBF24"/>
</g>
<g clip-path="url(#clip7_25_3620)">
<path d="M454.344 327.233C452.042 327.233 450.177 325.367 450.177 323.066C450.177 320.765 452.042 318.899 454.344 318.899C456.645 318.899 458.51 320.765 458.51 323.066C458.51 325.367 456.645 327.233 454.344 327.233Z" fill="#22C55E"/>
</g>
<path d="M689.408 323.039L694.358 327.989C694.454 328.081 694.53 328.191 694.582 328.313C694.635 328.435 694.662 328.567 694.663 328.699C694.665 328.832 694.639 328.964 694.589 329.087C694.539 329.21 694.464 329.321 694.371 329.415C694.277 329.509 694.165 329.583 694.042 329.634C693.919 329.684 693.787 329.709 693.655 329.708C693.522 329.707 693.391 329.679 693.269 329.627C693.147 329.575 693.036 329.498 692.944 329.403L687.287 323.746C687.1 323.558 686.994 323.304 686.994 323.039C686.994 322.774 687.1 322.519 687.287 322.332L692.944 316.675C693.133 316.493 693.385 316.392 693.648 316.394C693.91 316.396 694.161 316.502 694.346 316.687C694.531 316.872 694.637 317.123 694.639 317.385C694.641 317.648 694.54 317.9 694.358 318.089L689.408 323.039Z" fill="#94A3B8"/>
<path d="M720.965 323.11L716.015 318.16C715.833 317.971 715.732 317.719 715.734 317.456C715.737 317.194 715.842 316.943 716.027 316.758C716.213 316.573 716.464 316.467 716.726 316.465C716.988 316.463 717.241 316.564 717.429 316.746L723.086 322.403C723.274 322.59 723.379 322.845 723.379 323.11C723.379 323.375 723.274 323.629 723.086 323.817L717.429 329.474C717.241 329.656 716.988 329.757 716.726 329.755C716.464 329.752 716.213 329.647 716.027 329.462C715.842 329.276 715.737 329.025 715.734 328.763C715.732 328.501 715.833 328.248 716.015 328.06L720.965 323.11V323.11Z" fill="#475569"/>
<rect x="498.346" y="310.539" width="154.908" height="25" rx="5" fill="#F1F5F9"/>
<path d="M540.364 326.455V323.191C540.364 322.941 540.314 322.724 540.212 322.541C540.114 322.353 539.966 322.209 539.767 322.107C539.568 322.006 539.321 321.955 539.028 321.955C538.755 321.955 538.515 322.002 538.308 322.096C538.105 322.189 537.945 322.312 537.827 322.465C537.714 322.617 537.657 322.781 537.657 322.957H536.573C536.573 322.73 536.632 322.506 536.749 322.283C536.866 322.06 537.034 321.859 537.253 321.68C537.476 321.496 537.741 321.351 538.05 321.246C538.362 321.137 538.71 321.082 539.093 321.082C539.554 321.082 539.96 321.16 540.312 321.316C540.667 321.472 540.945 321.709 541.144 322.025C541.347 322.338 541.448 322.73 541.448 323.203V326.156C541.448 326.367 541.466 326.592 541.501 326.83C541.54 327.068 541.597 327.273 541.671 327.445V327.539H540.54C540.486 327.414 540.443 327.248 540.411 327.041C540.38 326.83 540.364 326.635 540.364 326.455ZM540.552 323.695L540.564 324.457H539.468C539.159 324.457 538.884 324.482 538.642 324.533C538.4 324.58 538.196 324.652 538.032 324.75C537.868 324.847 537.743 324.971 537.657 325.119C537.571 325.263 537.528 325.433 537.528 325.629C537.528 325.828 537.573 326.01 537.663 326.174C537.753 326.338 537.888 326.469 538.068 326.566C538.251 326.66 538.476 326.707 538.741 326.707C539.073 326.707 539.366 326.637 539.62 326.496C539.874 326.355 540.075 326.183 540.224 325.98C540.376 325.777 540.458 325.58 540.47 325.388L540.933 325.91C540.905 326.074 540.831 326.256 540.71 326.455C540.589 326.654 540.427 326.846 540.224 327.029C540.025 327.209 539.786 327.359 539.509 327.48C539.236 327.597 538.927 327.656 538.583 327.656C538.153 327.656 537.777 327.572 537.452 327.404C537.132 327.236 536.882 327.012 536.702 326.73C536.527 326.445 536.439 326.127 536.439 325.775C536.439 325.435 536.505 325.137 536.638 324.879C536.771 324.617 536.962 324.4 537.212 324.228C537.462 324.053 537.763 323.92 538.114 323.83C538.466 323.74 538.859 323.695 539.292 323.695H540.552ZM544.237 322.418V329.976H543.148V321.199H544.144L544.237 322.418ZM548.509 324.316V324.439C548.509 324.9 548.454 325.328 548.345 325.722C548.236 326.113 548.075 326.453 547.864 326.742C547.657 327.031 547.402 327.256 547.097 327.416C546.792 327.576 546.443 327.656 546.048 327.656C545.646 327.656 545.29 327.59 544.982 327.457C544.673 327.324 544.411 327.131 544.196 326.877C543.982 326.623 543.81 326.318 543.681 325.963C543.556 325.607 543.47 325.207 543.423 324.762V324.105C543.47 323.637 543.558 323.217 543.687 322.846C543.816 322.474 543.986 322.158 544.196 321.896C544.411 321.631 544.671 321.43 544.976 321.293C545.28 321.152 545.632 321.082 546.03 321.082C546.429 321.082 546.782 321.16 547.091 321.316C547.4 321.469 547.659 321.687 547.87 321.972C548.081 322.258 548.239 322.599 548.345 322.998C548.454 323.392 548.509 323.832 548.509 324.316ZM547.419 324.439V324.316C547.419 324 547.386 323.703 547.32 323.426C547.253 323.144 547.15 322.898 547.009 322.687C546.872 322.472 546.696 322.305 546.482 322.183C546.267 322.058 546.011 321.996 545.714 321.996C545.441 321.996 545.202 322.043 544.999 322.137C544.8 322.23 544.63 322.357 544.489 322.517C544.349 322.674 544.234 322.853 544.144 323.056C544.058 323.256 543.993 323.463 543.95 323.678V325.195C544.028 325.469 544.138 325.726 544.278 325.969C544.419 326.207 544.607 326.4 544.841 326.549C545.075 326.693 545.37 326.765 545.726 326.765C546.019 326.765 546.271 326.705 546.482 326.584C546.696 326.459 546.872 326.289 547.009 326.074C547.15 325.859 547.253 325.613 547.32 325.336C547.386 325.055 547.419 324.756 547.419 324.439ZM550.976 322.418V329.976H549.886V321.199H550.882L550.976 322.418ZM555.247 324.316V324.439C555.247 324.9 555.193 325.328 555.083 325.722C554.974 326.113 554.814 326.453 554.603 326.742C554.396 327.031 554.14 327.256 553.835 327.416C553.53 327.576 553.181 327.656 552.786 327.656C552.384 327.656 552.028 327.59 551.72 327.457C551.411 327.324 551.15 327.131 550.935 326.877C550.72 326.623 550.548 326.318 550.419 325.963C550.294 325.607 550.208 325.207 550.161 324.762V324.105C550.208 323.637 550.296 323.217 550.425 322.846C550.554 322.474 550.724 322.158 550.935 321.896C551.15 321.631 551.409 321.43 551.714 321.293C552.019 321.152 552.37 321.082 552.769 321.082C553.167 321.082 553.521 321.16 553.829 321.316C554.138 321.469 554.398 321.687 554.609 321.972C554.82 322.258 554.978 322.599 555.083 322.998C555.193 323.392 555.247 323.832 555.247 324.316ZM554.157 324.439V324.316C554.157 324 554.124 323.703 554.058 323.426C553.991 323.144 553.888 322.898 553.747 322.687C553.611 322.472 553.435 322.305 553.22 322.183C553.005 322.058 552.749 321.996 552.452 321.996C552.179 321.996 551.941 322.043 551.737 322.137C551.538 322.23 551.368 322.357 551.228 322.517C551.087 322.674 550.972 322.853 550.882 323.056C550.796 323.256 550.732 323.463 550.689 323.678V325.195C550.767 325.469 550.876 325.726 551.017 325.969C551.157 326.207 551.345 326.4 551.579 326.549C551.814 326.693 552.109 326.765 552.464 326.765C552.757 326.765 553.009 326.705 553.22 326.584C553.435 326.459 553.611 326.289 553.747 326.074C553.888 325.859 553.991 325.613 554.058 325.336C554.124 325.055 554.157 324.756 554.157 324.439ZM556.648 326.965C556.648 326.781 556.704 326.627 556.818 326.502C556.935 326.373 557.103 326.308 557.321 326.308C557.54 326.308 557.706 326.373 557.82 326.502C557.937 326.627 557.995 326.781 557.995 326.965C557.995 327.144 557.937 327.297 557.82 327.422C557.706 327.547 557.54 327.609 557.321 327.609C557.103 327.609 556.935 327.547 556.818 327.422C556.704 327.297 556.648 327.144 556.648 326.965ZM560.872 322.459V327.539H559.782V321.199H560.814L560.872 322.459ZM560.65 324.129L560.146 324.111C560.15 323.678 560.206 323.277 560.316 322.91C560.425 322.539 560.587 322.217 560.802 321.943C561.017 321.67 561.284 321.459 561.605 321.31C561.925 321.158 562.296 321.082 562.718 321.082C563.015 321.082 563.288 321.125 563.538 321.211C563.788 321.293 564.005 321.424 564.189 321.603C564.372 321.783 564.515 322.013 564.616 322.295C564.718 322.576 564.769 322.916 564.769 323.314V327.539H563.685V323.367C563.685 323.035 563.628 322.769 563.515 322.57C563.405 322.371 563.249 322.226 563.046 322.137C562.843 322.043 562.605 321.996 562.331 321.996C562.011 321.996 561.743 322.053 561.528 322.166C561.314 322.279 561.142 322.435 561.013 322.635C560.884 322.834 560.79 323.062 560.732 323.32C560.677 323.574 560.65 323.844 560.65 324.129ZM564.757 323.531L564.03 323.754C564.034 323.406 564.091 323.072 564.2 322.752C564.314 322.431 564.476 322.146 564.687 321.896C564.902 321.646 565.165 321.449 565.478 321.305C565.79 321.156 566.148 321.082 566.55 321.082C566.89 321.082 567.191 321.127 567.452 321.217C567.718 321.306 567.941 321.445 568.12 321.633C568.304 321.816 568.443 322.053 568.536 322.342C568.63 322.631 568.677 322.974 568.677 323.373V327.539H567.587V323.361C567.587 323.006 567.53 322.73 567.417 322.535C567.308 322.336 567.152 322.197 566.948 322.119C566.749 322.037 566.511 321.996 566.234 321.996C565.995 321.996 565.784 322.037 565.601 322.119C565.417 322.201 565.263 322.314 565.138 322.459C565.013 322.599 564.917 322.762 564.851 322.945C564.788 323.129 564.757 323.324 564.757 323.531ZM574.056 326.455V323.191C574.056 322.941 574.005 322.724 573.903 322.541C573.806 322.353 573.657 322.209 573.458 322.107C573.259 322.006 573.013 321.955 572.72 321.955C572.446 321.955 572.206 322.002 571.999 322.096C571.796 322.189 571.636 322.312 571.519 322.465C571.405 322.617 571.349 322.781 571.349 322.957H570.265C570.265 322.73 570.323 322.506 570.441 322.283C570.558 322.06 570.726 321.859 570.945 321.68C571.167 321.496 571.433 321.351 571.741 321.246C572.054 321.137 572.402 321.082 572.784 321.082C573.245 321.082 573.652 321.16 574.003 321.316C574.359 321.472 574.636 321.709 574.835 322.025C575.038 322.338 575.14 322.73 575.14 323.203V326.156C575.14 326.367 575.157 326.592 575.193 326.83C575.232 327.068 575.288 327.273 575.362 327.445V327.539H574.232C574.177 327.414 574.134 327.248 574.103 327.041C574.071 326.83 574.056 326.635 574.056 326.455ZM574.243 323.695L574.255 324.457H573.159C572.851 324.457 572.575 324.482 572.333 324.533C572.091 324.58 571.888 324.652 571.724 324.75C571.56 324.847 571.435 324.971 571.349 325.119C571.263 325.263 571.22 325.433 571.22 325.629C571.22 325.828 571.265 326.01 571.355 326.174C571.445 326.338 571.579 326.469 571.759 326.566C571.943 326.66 572.167 326.707 572.433 326.707C572.765 326.707 573.058 326.637 573.312 326.496C573.566 326.355 573.767 326.183 573.915 325.98C574.068 325.777 574.15 325.58 574.161 325.388L574.624 325.91C574.597 326.074 574.523 326.256 574.402 326.455C574.28 326.654 574.118 326.846 573.915 327.029C573.716 327.209 573.478 327.359 573.2 327.48C572.927 327.597 572.618 327.656 572.275 327.656C571.845 327.656 571.468 327.572 571.144 327.404C570.823 327.236 570.573 327.012 570.394 326.73C570.218 326.445 570.13 326.127 570.13 325.775C570.13 325.435 570.196 325.137 570.329 324.879C570.462 324.617 570.653 324.4 570.903 324.228C571.153 324.053 571.454 323.92 571.806 323.83C572.157 323.74 572.55 323.695 572.984 323.695H574.243ZM580.952 321.199H581.937V327.404C581.937 327.963 581.823 328.439 581.597 328.834C581.37 329.228 581.054 329.527 580.648 329.73C580.245 329.937 579.78 330.041 579.253 330.041C579.034 330.041 578.777 330.006 578.48 329.935C578.187 329.869 577.898 329.754 577.612 329.59C577.331 329.43 577.095 329.213 576.903 328.939L577.472 328.295C577.737 328.615 578.015 328.838 578.304 328.963C578.597 329.088 578.886 329.15 579.171 329.15C579.515 329.15 579.812 329.086 580.062 328.957C580.312 328.828 580.505 328.637 580.642 328.383C580.782 328.133 580.853 327.824 580.853 327.457V322.594L580.952 321.199ZM576.587 324.439V324.316C576.587 323.832 576.644 323.392 576.757 322.998C576.874 322.599 577.04 322.258 577.255 321.972C577.474 321.687 577.737 321.469 578.046 321.316C578.355 321.16 578.702 321.082 579.089 321.082C579.487 321.082 579.835 321.152 580.132 321.293C580.433 321.43 580.687 321.631 580.894 321.896C581.105 322.158 581.271 322.474 581.392 322.846C581.513 323.217 581.597 323.637 581.644 324.105V324.644C581.601 325.109 581.517 325.527 581.392 325.898C581.271 326.269 581.105 326.586 580.894 326.847C580.687 327.109 580.433 327.31 580.132 327.451C579.831 327.588 579.48 327.656 579.077 327.656C578.698 327.656 578.355 327.576 578.046 327.416C577.741 327.256 577.48 327.031 577.261 326.742C577.042 326.453 576.874 326.113 576.757 325.722C576.644 325.328 576.587 324.9 576.587 324.439ZM577.671 324.316V324.439C577.671 324.756 577.702 325.053 577.765 325.33C577.831 325.607 577.931 325.851 578.064 326.062C578.2 326.273 578.374 326.439 578.585 326.56C578.796 326.678 579.048 326.736 579.341 326.736C579.7 326.736 579.997 326.66 580.232 326.508C580.466 326.355 580.652 326.154 580.788 325.904C580.929 325.654 581.038 325.383 581.116 325.09V323.678C581.073 323.463 581.007 323.256 580.917 323.056C580.831 322.853 580.718 322.674 580.577 322.517C580.441 322.357 580.271 322.23 580.068 322.137C579.864 322.043 579.626 321.996 579.353 321.996C579.056 321.996 578.8 322.058 578.585 322.183C578.374 322.305 578.2 322.472 578.064 322.687C577.931 322.898 577.831 323.144 577.765 323.426C577.702 323.703 577.671 324 577.671 324.316ZM584.667 322.553V327.539H583.583V321.199H584.609L584.667 322.553ZM584.409 324.129L583.958 324.111C583.962 323.678 584.027 323.277 584.152 322.91C584.277 322.539 584.452 322.217 584.679 321.943C584.905 321.67 585.175 321.459 585.487 321.31C585.804 321.158 586.153 321.082 586.536 321.082C586.849 321.082 587.13 321.125 587.38 321.211C587.63 321.293 587.843 321.426 588.019 321.609C588.198 321.793 588.335 322.031 588.429 322.324C588.523 322.613 588.57 322.967 588.57 323.385V327.539H587.48V323.373C587.48 323.041 587.431 322.775 587.333 322.576C587.236 322.373 587.093 322.226 586.905 322.137C586.718 322.043 586.487 321.996 586.214 321.996C585.945 321.996 585.698 322.053 585.476 322.166C585.257 322.279 585.068 322.435 584.907 322.635C584.751 322.834 584.628 323.062 584.538 323.32C584.452 323.574 584.409 323.844 584.409 324.129ZM591.394 321.199V327.539H590.304V321.199H591.394ZM590.222 319.517C590.222 319.342 590.275 319.193 590.38 319.072C590.489 318.951 590.65 318.89 590.861 318.89C591.068 318.89 591.226 318.951 591.335 319.072C591.448 319.193 591.505 319.342 591.505 319.517C591.505 319.685 591.448 319.83 591.335 319.951C591.226 320.068 591.068 320.127 590.861 320.127C590.65 320.127 590.489 320.068 590.38 319.951C590.275 319.83 590.222 319.685 590.222 319.517ZM594.581 327.539H593.497V320.648C593.497 320.168 593.591 319.762 593.778 319.43C593.966 319.097 594.234 318.846 594.581 318.674C594.929 318.502 595.341 318.416 595.818 318.416C596.099 318.416 596.374 318.451 596.644 318.521C596.913 318.588 597.191 318.672 597.476 318.773L597.294 319.687C597.114 319.617 596.905 319.551 596.667 319.488C596.433 319.422 596.175 319.388 595.894 319.388C595.429 319.388 595.093 319.494 594.886 319.705C594.683 319.912 594.581 320.226 594.581 320.648V327.539ZM595.876 321.199V322.031H592.495V321.199H595.876ZM598.009 321.199V327.539H596.925V321.199H598.009ZM599.808 326.965C599.808 326.781 599.864 326.627 599.978 326.502C600.095 326.373 600.263 326.308 600.482 326.308C600.7 326.308 600.866 326.373 600.98 326.502C601.097 326.627 601.155 326.781 601.155 326.965C601.155 327.144 601.097 327.297 600.98 327.422C600.866 327.547 600.7 327.609 600.482 327.609C600.263 327.609 600.095 327.547 599.978 327.422C599.864 327.297 599.808 327.144 599.808 326.965ZM605.491 326.765C605.749 326.765 605.987 326.713 606.206 326.607C606.425 326.502 606.605 326.357 606.745 326.174C606.886 325.986 606.966 325.773 606.986 325.535H608.017C607.997 325.91 607.87 326.26 607.636 326.584C607.405 326.904 607.103 327.164 606.728 327.363C606.353 327.558 605.941 327.656 605.491 327.656C605.015 327.656 604.599 327.572 604.243 327.404C603.892 327.236 603.599 327.006 603.364 326.713C603.134 326.42 602.96 326.084 602.843 325.705C602.73 325.322 602.673 324.918 602.673 324.492V324.246C602.673 323.82 602.73 323.418 602.843 323.039C602.96 322.656 603.134 322.318 603.364 322.025C603.599 321.732 603.892 321.502 604.243 321.334C604.599 321.166 605.015 321.082 605.491 321.082C605.987 321.082 606.421 321.183 606.792 321.387C607.163 321.586 607.454 321.859 607.665 322.207C607.88 322.551 607.997 322.941 608.017 323.379H606.986C606.966 323.117 606.892 322.881 606.763 322.67C606.638 322.459 606.466 322.291 606.247 322.166C606.032 322.037 605.78 321.972 605.491 321.972C605.159 321.972 604.88 322.039 604.653 322.172C604.431 322.301 604.253 322.476 604.12 322.699C603.991 322.918 603.898 323.162 603.839 323.431C603.784 323.697 603.757 323.969 603.757 324.246V324.492C603.757 324.769 603.784 325.043 603.839 325.312C603.894 325.582 603.986 325.826 604.114 326.045C604.247 326.263 604.425 326.439 604.648 326.572C604.874 326.701 605.155 326.765 605.491 326.765ZM608.948 324.439V324.305C608.948 323.847 609.015 323.424 609.148 323.033C609.28 322.638 609.472 322.297 609.722 322.008C609.972 321.715 610.275 321.488 610.63 321.328C610.986 321.164 611.384 321.082 611.825 321.082C612.271 321.082 612.671 321.164 613.027 321.328C613.386 321.488 613.691 321.715 613.941 322.008C614.195 322.297 614.388 322.638 614.521 323.033C614.653 323.424 614.72 323.847 614.72 324.305V324.439C614.72 324.896 614.653 325.32 614.521 325.711C614.388 326.101 614.195 326.443 613.941 326.736C613.691 327.025 613.388 327.252 613.032 327.416C612.681 327.576 612.282 327.656 611.837 327.656C611.392 327.656 610.991 327.576 610.636 327.416C610.28 327.252 609.976 327.025 609.722 326.736C609.472 326.443 609.28 326.101 609.148 325.711C609.015 325.32 608.948 324.896 608.948 324.439ZM610.032 324.305V324.439C610.032 324.756 610.07 325.055 610.144 325.336C610.218 325.613 610.329 325.859 610.478 326.074C610.63 326.289 610.82 326.459 611.046 326.584C611.273 326.705 611.536 326.765 611.837 326.765C612.134 326.765 612.394 326.705 612.616 326.584C612.843 326.459 613.03 326.289 613.179 326.074C613.327 325.859 613.439 325.613 613.513 325.336C613.591 325.055 613.63 324.756 613.63 324.439V324.305C613.63 323.992 613.591 323.697 613.513 323.42C613.439 323.138 613.325 322.89 613.173 322.676C613.025 322.457 612.837 322.285 612.611 322.16C612.388 322.035 612.126 321.972 611.825 321.972C611.528 321.972 611.267 322.035 611.04 322.16C610.818 322.285 610.63 322.457 610.478 322.676C610.329 322.89 610.218 323.138 610.144 323.42C610.07 323.697 610.032 323.992 610.032 324.305Z" fill="#94A3B8"/>
</g>
<rect x="403.844" y="303.039" width="343.307" height="252.461" rx="19.5" stroke="#CBD5E1"/>
</g>
<defs>
<filter id="filter0_d_25_3620" x="0.873932" y="0" width="605.078" height="459.724" filterUnits="userSpaceOnUse" color-interpolation-filters="sRGB">
<feFlood flood-opacity="0" result="BackgroundImageFix"/>
<feColorMatrix in="SourceAlpha" type="matrix" values="0 0 0 0 0 0 0 0 0 0 0 0 0 0 0 0 0 0 127 0" result="hardAlpha"/>
<feOffset/>
<feGaussianBlur stdDeviation="15"/>
<feComposite in2="hardAlpha" operator="out"/>
<feColorMatrix type="matrix" values="0 0 0 0 0 0 0 0 0 0 0 0 0 0 0 0 0 0 0.07 0"/>
<feBlend mode="normal" in2="BackgroundImageFix" result="effect1_dropShadow_25_3620"/>
<feBlend mode="normal" in="SourceGraphic" in2="effect1_dropShadow_25_3620" result="shape"/>
</filter>
<filter id="filter1_d_25_3620" x="373.344" y="272.539" width="404.307" height="313.461" filterUnits="userSpaceOnUse" color-interpolation-filters="sRGB">
<feFlood flood-opacity="0" result="BackgroundImageFix"/>
<feColorMatrix in="SourceAlpha" type="matrix" values="0 0 0 0 0 0 0 0 0 0 0 0 0 0 0 0 0 0 127 0" result="hardAlpha"/>
<feOffset/>
<feGaussianBlur stdDeviation="15"/>
<feComposite in2="hardAlpha" operator="out"/>
<feColorMatrix type="matrix" values="0 0 0 0 0 0 0 0 0 0 0 0 0 0 0 0 0 0 0.05 0"/>
<feBlend mode="normal" in2="BackgroundImageFix" result="effect1_dropShadow_25_3620"/>
<feBlend mode="normal" in="SourceGraphic" in2="effect1_dropShadow_25_3620" result="shape"/>
</filter>
<clipPath id="clip0_25_3620">
<rect x="30.8739" y="30" width="545.078" height="399.724" rx="20" fill="white"/>
</clipPath>
<clipPath id="clip1_25_3620">
<rect width="10" height="10" fill="white" transform="translate(46.8739 45.5)"/>
</clipPath>
<clipPath id="clip2_25_3620">
<rect width="10" height="10" fill="white" transform="translate(61.8739 45.5)"/>
</clipPath>
<clipPath id="clip3_25_3620">
<rect width="10" height="10" fill="white" transform="translate(76.8739 45.5)"/>
</clipPath>
<clipPath id="clip4_25_3620">
<rect x="403.344" y="302.539" width="344.307" height="253.461" rx="20" fill="white"/>
</clipPath>
<clipPath id="clip5_25_3620">
<rect width="10" height="10" fill="white" transform="translate(419.344 318.039)"/>
</clipPath>
<clipPath id="clip6_25_3620">
<rect width="10" height="10" fill="white" transform="translate(434.344 318.039)"/>
</clipPath>
<clipPath id="clip7_25_3620">
<rect width="10" height="10" fill="white" transform="translate(449.344 318.039)"/>
</clipPath>
</defs>
</svg>
