<svg width="32" height="32" viewBox="0 0 32 32" fill="none" xmlns="http://www.w3.org/2000/svg">
<path d="M32 4.8201C30.8017 5.37506 29.5307 5.73939 28.2293 5.90101C29.5828 5.05029 30.624 3.70588 31.114 2.10159C29.8253 2.90144 28.4154 3.46496 26.9452 3.7678C25.7044 2.38178 23.9691 1.59671 22.1538 1.6C18.5296 1.6 15.5882 4.67361 15.5882 8.46513C15.5882 9.00387 15.6462 9.52895 15.7597 10.0303C10.3027 9.74356 5.46637 7.01139 2.22771 2.85686C1.66221 3.86966 1.33965 5.05029 1.33965 6.30886C1.33965 8.68976 2.49821 10.7916 4.25943 12.023C3.21667 11.9896 2.19679 11.6951 1.28534 11.1642V11.2517C1.28534 14.5773 3.54857 17.3524 6.55042 17.9845C5.58363 18.2583 4.56996 18.2984 3.58613 18.1019C4.42193 20.83 6.84726 22.8146 9.71886 22.8723C7.47237 24.7108 4.64201 25.8105 1.56544 25.8105C1.0423 25.8099 0.519621 25.7778 0 25.7144C2.90508 27.6619 6.35668 28.8 10.0639 28.8C22.1395 28.8 28.7417 18.336 28.7417 9.26161C28.7417 8.9648 28.7417 8.66798 28.7213 8.37331C30.006 7.40111 31.1154 6.19803 31.998 4.8201H32Z" fill="#2D2D2D"/>
</svg>
